<mxfile host="app.diagrams.net" modified="2020-11-18T05:25:03.987Z" agent="5.0 (Windows NT 10.0; Win64; x64) AppleWebKit/537.36 (KHTML, like Gecko) Chrome/86.0.4240.183 Safari/537.36 OPR/72.0.3815.320" etag="rcgtfLW4otdObnsVkP27" version="13.8.6" type="github">
  <diagram id="R2lEEEUBdFMjLlhIrx00" name="Page-1">
    <mxGraphModel dx="2530" dy="772" grid="1" gridSize="10" guides="1" tooltips="1" connect="1" arrows="1" fold="1" page="1" pageScale="1" pageWidth="850" pageHeight="1100" math="0" shadow="0" extFonts="Permanent Marker^https://fonts.googleapis.com/css?family=Permanent+Marker">
      <root>
        <mxCell id="0" />
        <mxCell id="1" parent="0" />
        <mxCell id="9n3g0Q26KRdH6jhfDVG3-128" value="" style="shape=image;verticalLabelPosition=bottom;labelBackgroundColor=#ffffff;verticalAlign=top;aspect=fixed;imageAspect=0;image=data:image/png,iVBORw0KGgoAAAANSUhEUgAAAGEAAABzCAYAAACIGGwzAAAgAElEQVR4Ad2d95dVRdb3+R/mh/nxWWtm1lLRMRPMICKgktEGSQpiAkRARUDE8OCQEREUdR6CCoOAoCgZRGGQIGCTk8TOOXffTt93ffY9dbnd3O6+9/a5uHjPWqfP7TpVu3aovWtX1a46LeTDVVtbq+qaGpVVVNhdU1MTF9Tq6mplZGRo+PDhatmypbZu3ary8nKDxXPOnDnq0KGDps+YoSNHj8ZVR1OFaiVxlwYCyi0uVkVlpaDP76umtlaV1dWqqqpSCyqI9wYxysL0QFWV8kpKDPGq6uqoYLryrn4QSs/I0MvDh+umli21ZcsWlZWVGf0VFRUmhAceeECvjxunTVu2qLikxOquD8fBi+cJc7iramqMSTQM6IsHVmNlaLTwLFBZqRaV/AgExNNVRsWVlZV2w9AQYtXVVhBmudbOe1pLaUWFCSCvuFikkcdgkNcRFgbXlecdyBicQKCOEDZs2qTi0tKgEAIBzZ07V7fedptatW6tkSNHauPGjSoqLg6+r6y0Oh0NtDIIBAcINhxgrEe40RuGV/28ji7SoQWGApvfLg24pCMw0rjhXaS81E86ZcAJnpcHAvZsUVJWpvziYhWVlhoAKgJYYUmJ3ZgYK1hdrdLychUUF9sTIlFS3ueXlAjmF5aVqcwTaHFZmQpKSiwvBAEDQZFWWFpqTId7vCOtqKzMcEhLTzdzdOONN2rtDz8ot6DAiAenlStXqkfPnmaqOnfqpA8//FBZWVmqrq1VXlGRqNM1phJXV0lJkDley6ZuNBZ6Da/qaqPBcCgttQYBD8A1Iz9fOYWFRgP4kx8e5BcVWXkaH3mhmfLwoSIQCAqrutrwsbzg5WkUZeAtfDR80QSIzykqMiBOimSEqdxUSkUQR6vMLSwMFvaEwPvcoiK7kSwSJy/Ekl5aVmatByIQOHYWZCHIhFBVZflIA7FwIXz7/ffKycszAdICk5OTNXv2bLVv317t2rXTW2+9pbS0NFXV1hqzaARoFS0OAqkLGhyzYAT1OHqdEBwNMJK8lCffmbQ0peXmGiwnBGhAMOQ1ehEYPCguNrgIBH4BGx5Y3tLSUOPgPY0e3rjG2IICVMCTyt1NmqWHpV2VVzKmUyE3RBphXtn6cOuXRwjU5+pCTdM9TaBj3rx5s0pKSkI4ocJHjhzRK6+8ot69e5sQ6MgdjHAaXF3AdjTxdOl18no4WJqXH4FezslRidcIHYzGyjfJL8/8AQNeVVRVmfVpYc2xuX88u1hcXm5mBWTiudBEmPryyy/r5ptv1q6dOw3JcFipqakaP368kpKSTAiZmZnhr5v/2/OE0Cjowd4n4kKozkT5IoRa5x15KhmvEDA5aAJCuOGGG7R27Vrl5uaGOkaYceHCBY0bN05PPfWUJk2aJL+FAHPkWqz3TIQQzGx7/YRvQsAMYRtRXz+E8Je//EVDhw7Vt99+K1o/WnIthWAdqNdRXx9C8FqM6xuQcjwXjM7Oztb777+vf/zjH/rnP/+pCRMm6NChQ+bKXQshGO61tWZWU3NyzPOJh5amyvivCZ4QrGPyOvmmkIj0ng6rqKhIa9asUb9+/fTXv/5V/fv31y+//BIaOSfaHMEcTFJBaakuZWebq4p58vtKiBDQAnxzOjOYGc9FOfqFwsJCbdiwQXfccYcGDBigHTt2XHMhOHOEu319CMEbR+Bb4y87+x2rIJwbSLljx47p3nvv1cCBA/XTTz+JaQuuRGuCwwGtRgDQguPh95UQTQBhBjAMjiCguQrMeOC+++7ToEGDtH379msmBMdsXFO0wYRwvZgjG4Awr0Lr+f9ACJjVtLw8GxWb2+qk49MzIZoAogB2t5+acC3NkeMxWn0+M9Pcbpfm55P5Ln8HazDfG4pjluLtmMOJDDdHf4YQmCczF7WiotmmNZwu99tpAo6IP4M1b9KO1sPkFOaoudefLQT6Apvb8cG0RuKFE0JuXp4/QqDl0xfQKTM7GK93FI7snyUE5x1BE42JG4b5fTkhsB7imyYwTmD6mKnx69kcwRwEgWdE54x5TUTHnJA+AUQB7FfL+bM0wQmBuX5GzAxArysh4Ftz+6G+f6YQGCGj0Sk5OTZt4b8xCq7D+OodYX5C0xbecmhzbeifJQRr9bW1Nj5gGdJW6ppLTITyrk+Ad770CQByHTNLh9ezd+SEAE3uvi40AcRRLewobipCaC7if5YmuMk6OmSCGNDwRFy+awJCACjaQFQEv693IeDppefmXl/rCSYINMATyPUuBDT6QmameUfXRBOMYQxIwiIrTC3rpcFgu7wn/5PCExNECIgLA6lT3gstDAnGg+vqC+UFuAf78OHDNpXNLGpD0xaEvBAYECzm4W//BUMZDd96dRnOXpr7bfnC6uZ/lmqzCwpsvOBwqpPfw9OrLsQ7R0udvPXpJ0rFTZXTMZPZXEsvCs51Rjyxh9yMgF06zGa+g6elOQFUVtpaAiNmyvCOcnZ7bitmKhyugxlK82BCmOsTWE9gKtvFpJ4/f15vvPGGnnzyyToL/Yarm8H1tNFw9Wi4qq56dDkcHF3gTQgOtDp6HAzeuTT4x8U7+sXwdNIsb9jIm/yWlz4nELD8LaiUxZis/HyLYsOuk8aCPZ4OTHVReMylEMyUmZ9vZcjHTashWo1AKSLhqJgylM0qKLCRtBtDEM+TWVCg7MJCQwKEyEs5YPM7XAhJ/fpp3YYNBoP002fP6tXRo9W7T586QmDOChrciB2Bu9YM7PKKCiMeTYVe6uc9+IMDTgVp4OwmIenfCHbjJujLBOMFtqEllKEsFwwljbzAhdmUZ5kUuPQxCIh0fsOXdG+q3IQAMApjB0EAxGAGyHKDOGkIiP9BlDIg5fKSFh6x54glnZBCJwSmAlxepgZgFqGD+OQwknJcThP6Pv20fty40ZhA+pmzZzV6zJirhOBocMFaIeEWF9eJlrNly7IywxUanRBgDPhDH60fnMDTIuiKi40fTgjkBVeeTgjARdikW0PCY2Tqw4NrPMBCeI0D2FmFhUZvC5QJCcF8JymnMvzPbYh6asRvS/NMTqS84WlOqKRxQ0hIxb0+BcRcXeThcn3CwEGDtC2COSLuKLxPoLzV5bW2cBwcDZbmzK9HF2ncji7y8j8hmXTMaBY4w2x3W+PzzBl5uXjneGiCcfyqx0NyUxd5y70gYhOCQyTup2fzsYkAjwmO17G7Mq4TDBdCpD6hvhBc+WY/PQ+PgGHWE9in0BRMhFA/D3TUT7P/vbwIwrn0voyYAU4LwhSEq6g1kTj/OHPUmHeUiAg81wjMbHnBX8G2HichDRRD+60j92tRB/WjE3KdKwJp7vVnCYEG5VoxjIK2RAoB+L5oAoCw86iw67CvdyFgVq0zxbw2l5gI5Z0m+CYEWg/A0AZufjf3+rM0AeagCZhW3G7nrTWXnvrlEyIE63TCOqP6lcb6f6hj9gZrLvgrfLAW7h3FCr+h/DQfWj7+/YWsrIQt6iRECLhtqK/z0xsiMtr0P1sIuI+YVjTb+oloEY8yn+9CwPxgQxmoMAhBIM29EELr1q319NNPXzVt8drYserVq5dFbLu5o+bW58qjBdy4kG58cF0IASTrCMGHPoFY1EcffVQvvPCCdu3aFQqDvHjxok1XDB48WFOmTLGNg46B8Ty9sdaVomGDLxqXH/3bFeBXfvmuCUHfOigI/OtgW7pSYTy/8vPztW7d9/r55x3KzEhXbW2wsy8qLtLOXbu0cdMmHfjtt9C+hXjqiFjGE4LNOxUWBmdRI2ZsXqLvQggEqpWZWaH8/AqVl7NHt1oVFZW2EZzN4PHchYUFSktL0R9/pOv8hUIVFQUMZlFxqVJS03Tx8mVlZmTYxsJY4ZeUlKmwsFz5BVUqLq5WIFCp8oqAKiurQhHY9Aeh/QnN43fE0r4LIb+gQjt+SdWevSk6cTJDJ09lKzn5tH777Te79+/fH/rt0hp7kn///n3av3+vvl+3X8tWHNbe/Rd19Hiqjhw5r99+O6i9e/dq3z7yxAKbvPu1Z89+/bLzkLbvuKC9+9J04mSKzpy9pOycvFAnzMg/1VtZuy76hJycAq1c9ZMmvbNCLw5fqhGvfqm+/UapU6dO6ty5s7p04e4S0+3KPdSui9p16K/BQz/WSyMWachzU9W1a2916tTRgxs77I4dO6pjp+7qnfSOBg35TKPGLNX8T1bq4MEjISEw6mc2lEHodSGEgoJibd6yTyNGLdG9D85Uh86fqFefNzRwQH/bacNuGxZnuPnd1B2er2+/AXqq7wj1H/xv9R+8TP0GfqT+A4Zp4IB+GjgQuFfqaBpuEI+nn+6r7j366c42o3Tz7RPVsct0zZm7VkeOng32Z954x3XMieicnTlC2L5MWwQCtTp/oUIff/Krkvp/pV59V2vBp9t0OPmQzpw5IwZY7LCJ7abMeR07fkG7dl/UyjVpWvJ1ulatxXxc0OVLwAvmiR5uEI+jR49ozdqtShrwudo98qFeeHmpdu66qJJSz0H1vD2cDJiUSE1gHOKTEKT09Fqd/aNIS77cqFtu7aQHHnxMU6dOC21/tTUE1ixivHPzKnXxUqUuXg7ocmqlMrOrVF4eOxxXL73kjh2/aPToiXpl1EzNX/CDDhw4p7y8CgWHN8FpC/oEVgqZtrguhFBZWauCglrhRB47cUTPPjMweAhI5y420CooKIjoIUSTWF4hFRZJ7N9r7sU69dGjRzV58nu67772mjp1tpKTOTfJm+sy/geFgHd0OTvb+gX0w+/LmSPGV75oAj48astQn1NZjh8/rpdeekl33323Jk6cqF9//TU0+oyVGG8+zU3zx1o8lJ/R77lz52w17p577tFdd92tb775Rjk5uaE8/LBW74VBstTJwksihUB/45sQkCiTXqzTlpWX297jd955R4899phmzJih06dP25prHYqv4T8M/jjE6oknnlC3bt20cOFCnTv3h5nHcDScENxyJ0y6ToQQHC0jBNSYq7S01IjGNWUpcv78+dZBc1LLtbxgKriwF5pZ10ceecSmPS5dunSVAAwvb8SMZrvIk0Tg68yRaQJI+nHTcvAmuD0La62fE1nYCotvvnr1ajtAxNWXCOLCYToB/HbggN58802bEHz++ee1fv36UGfrcAk9vTVmZoMJS3Edc+h9rPzyTFx4eXCE+U7Idc7Aq0+AK2gG2TPOpIX+D6sAybrb8njacDg5WZMnT1bPnj3tyXzPtbrQAEbmnBrDxvTHH3/cTo7h/IzQ5bX8OrRKptEXWU/gIEQvj6Pb5XW8CP/fnNxwmK6foUIHx0VneBEfLdxKGOpHTBDmhHUBN5VLS8BdAxkk5yTI/yxn8t7yeseQEdxFfuBx8e6HDRs0fORI6x+mT5umkydPhmZFQ8xIwA9Mzr///W/dd//9av/II5oxe7ZSUlNDeBHQBa6mvV4oD7S7E87cyhp0wxvjgbdyCH2MqCnveABvCAIjTIa85HFmx+BSlzsZzINp3hGZkSSIcNIVe3eJsAMAleMhXMrKso3VLroNRqfk5lpcjgVLeaEuIH02Pd1cOyoFLnn3JSdr6uzZannzzWrTurXee+89388piiRD+oFRo0apZ+/emjZ7tk5fvGiReOSFXnbi4IZCAwwkjehA4o0wRTQgaIBu8jGXRCOFsTCeiDu0BWcEfpGXYDH4BWzykMaTCO/L5CVMlOCyysqQubPTIMkIECctJ1mQIDOCYmoXqYVrAq3AaRJPEEc4RV4rAC5hHQVFRTpk59fNUfv2D6tTp0d1+vTJSHyLKw0tD9N0lZYW64cf1umZZwbbISUffPAvHTh40FxoGMjl6EUbHA2khVq3TckDN+h0kA8eWF4vgIxWj4bgmrNfzwQZCFi0ILwEXrgmAAN+1ngBYeyHQyAtHPZUFn7xv9k3l+hRavm831de1RowWoxpSz1Y5AtUVHgd9WR17dpXX361XseOpykvL6Dq6rp1O7jRPsGJqZPMrFoVFNbq3PkUjRgxWq1b32MmcOuWLeYhhcML0evhavSG0UXjgZE8XV/gno4vDuvQ/47ucJiR+gSv/zQhuahskHNI1Hk2lB7BQ6AVMCByS4KOYEPQC39k3n/3r4c1ddpy9Xpyut6c+J22bLukkpLmDYfBuai4Rv/dU6M9+wLavCVZDz/cR737DLSzk9LT06yVks9ddeiMQA/9XWjEXP89fKnPm/r/uzIR0hGm0xD45tNgLaiKSNap4BVyHdlBtyw7O09r1u5Wxy7v6b6H3tW4CauVnV1yJVNcv4iAls5dkFatSdOkdzbq1TEztWTJN7p8OUWBQDDSOyrQnqAQgtu9GVW5GDMlRAhoAOqLnbMOLQJStL7S0oD27D2nkaO/1j0PTFSPPu9r377DtkJGkfDWGgFExCSmTYqKKrRnX7be/d9NSuo/T19+/ZPOnk0xzYxYqKFETwj0ixxiy3aASA2qoeLRpjshwDffNIFOOxRt0eBQv1Z5edU6frJUW7dnauzri9W95yhNnz7HVsjopFDPWK+S4mL9/vsZTZy0Rl27T9SAQaO1b98pVVR4YYxhZqhJ2F5e8CCcv6EG1SScJjI4IZiL2kTeqF5zMhYdGO4b7h7SrX9BG3d5ea3yC2qUmVmpFSs2asjQEWrb9h4b0R44cEDl5cEDyuuXr/t/3bbJEuekt99Xu/ZJev7F8Vq/Ybuysgqsvrrlmv7PNNHziPB6MK/xaGdTNTkh4G35pgm0GpDGbYvUmp0QaOj8rqmp1elTp/TJJ/PVtm0b82I++ugjZWW5w2at6xPnkWdmSUVFlRZEUFV1RVMQNuflffzxx3qoXTv16/e0lv/nPyotDe4piId5MAcEMa3ssGFwFZc0m5CCE4J/mkBvz+jY6/UbE8IVYQQHQsQRzZs3T71791Lfvn119OixoCaZd1GlYycC2rClWId+T9fpM1lKSS1SWVkw3jUvL882FbKsyaGFbDAsKys3dxkcmiMENNp2b4ZPWzTB2FheOyH42idgO+nMuK01NYGRYxBbilj+HDPmFd1xZxtNn7lKx09kWemC/FytXLVJI16Zo5dGfKFRo7/UO++t0qLFm/XTjr3auHG9Hd1573336bnnnrPlUwoC28FvAo2rXoM7ZdEE9uwxuEqkJtBY/DFHXhikHTrl7ei/iroICeGMWr78S3Xr1kc9ek/Qp59v09FjGfru+50a+cok3Xf/k+rWa6ae7LdQfQd8rEHPztTr4+Zr3PhpatXqfvXvHxwPcKZqcy8nQFqozXK6wVpzAdcr7zTBVyHQYohDxY6iFdFc4UIg0Oubb1bp0U5P6ql+7+uNCRvUo9cU3XH3ED3YfpS+WHRAa76/oDnzduqpfjN0f7vxavfIBL344tv6Yd0mmxAMhxdN/ZHyOCGEP68PTQibe2psnBCJaJdWXV2lS5dTNH/Bcg0cPFuPdJ6uJ/vN15sTl+vr5Tt15myB0tID2rs/TVOmblXPPh/pwfZv6Nkh47Rp0/a4zY+rP/Sk05Jsoo+JObyXRFz+a4KbC/H8arOrMWIO7UXFtfp5V6qeGTJLt9zWX++8/6127b6kwiLGD9hqKTu7Uhu3pGvCpHV6vOsEPd51oJYvX+mbEJw2saWX2VDbDhsjLdFkT4gQQB775rySup5802ixh/zchSp9822aujzxqm6+pZU2bd6h4pIyYzDwAxUM9mp08VK1vlp2QAOfmaZWrTvoo48W+C4E+jeEwMxpIq6ECIFBDVO1zLlE2yeEE0f/l5JWpo8/2aun+s3RgEFTdPjIOVXXXBFnTTWzpRIfnNq957ze/2C1Ojw6VjNmr1VhEY0gHGJ8v11tmCGmqfHjXVp8ECOX8l0ItH6Qbu7uzcysEs2YvU2Dh3ylsW+s1clTOV5AVl1CmCvCjV2wcLce6z5LH0zfpvRM1kTq5ovnPxhut+eqwixuv6/ECMELeXErbfEgnZZerk8/P6ykfvOV1G+KDv5+XlVVdRkAP6qqa3Tw9xxNn/WL7m83RpPfXakMhNC8GXFD2QkBzcbjw1W9LoRg/QE22zsrG82I9YK5KWkBLfrygjp1eVNt2j6mPXsO1fEOMUX5BbXKyJQ2bj6lN8Z/plZtu2va9M9VWuaPOQJzBIEpcmvMrrOOlabG8vuuCSBpgnDnP8ShvhTJzq3Wpm25GvjMv9S67RNasvQHnTmbpZISJtFk/UFqepV2/Zqn2XM3q//AierQoZsWLVriW8dsrd77iAXrx4yc6+piY6yN/l1CzkW1aYvKyqinLeqjC5MxPTl5Vfpy2SENHLJYSf0/1L9mbNB/f00XG1HopC+l5GvBwp1K6v+p2nd8SyNGvqeftu/0Y4eWoeSEYBN4HNHD7s36yPrwf0KEgBfBVDauXTzeEXRhxQqKpG9Wn9KAZ7/S/e0m64F2I9Sv/3jNmP2dPv+/nZo1d4uGPL9InbvOVN8Bc7Xim1+UmhKca/KBN0GN8pZjWdBhdjgRQnDmiFngOsFfzqzE+nTekVvUcXPwscChKaMJl1OrtGDhT+rSdZJuv2uIbrq5s+5u3U29kmabYJL6/1uPPvaeuvd+T29NXqoTJzPNg4qlrmjyhuaOvBNsoikTSx7jGeeL5+erBQxr7o0W4EkQAsM4AXfV9gPEABshlJYF9NvBdI0bP0O33d5Wt9zaSgMHv6ip05dowuRNenPSL3plzLfq1usVPTtklBZ8+n+6cDFVVdVXzkvygxZgEADGSWIM1poLM1J5eGTbsVjeJIi32bd3QhhzLdxoBGYpKrjkYy23plopGZn6eMFSPdGtj1q3aa2Jb7+lRV/+qDXrTmjdprPauP28Vqzdr/GTpql7j97q3r27ln69TKfPnbe1bWcOo6q3Abod7hl5eTqfkWGxVM2B11BZN6ayRR3HuOY++aARM6jczKbGBM8+SlqoXXv36OkBA/RIx44aNXqUfjt0UKfPFevw8XKlZPLRpFJdSEvXDxs26rlhw3Trrf/UM889Z1+rLeBINO+bPjHV7TUcV8ZwLyoy95QttAS0uXd+PonUAzYWpIU7m645T9aXAUYrQsJIN1p4eAnY0pOnTmn+ggVq07atnfZ44sQJ++ZaoBLYHNsQXHhnuTEnN1frN2zQmLFjbVlz5syZKvTqBV60dTeWj04Zc8HYx8yJt/DfWJlY3gGXpWBg+7Oo4y2M8+1hDjSMxztasWKFevbqZZHTS5YsaXB9ANgWmJWWph9+/NE+C9yjRw8tXrzYhIOHhFCbe+G9cBssH+DVx4eOmcYKPb4KAeZE46I6LwLE6MBZ3hw9erRuv/12O6/i4MGD9XEO/Y/WocrlVVW2KXHMmDFi+xM7grZt22baE8rcjB/U42JymwGmwaLORUUYvgkBoEiVG8CNXeFC4Kuzb7/9th5++GE7cBYzxLpzQ60ZodEBM5gqLi62UyOHDx+uv//977YPgcV+Py7qcGGQfsCrDyMhQoBpTn0bYmB9RDjda/r06fbtZfaSYVIYvHA1BIMYJ+yoCZzWWl5uURavv/667rrrLtsSRRQGfn48l6sXjSbawtYTEmGOvIh1/zTBa/10ztzRaAJM+vzzz/XAAw/opptu0rvvvis2dbgTvhpioAnbG0C5PGgHAWC33nqrbQxkg2BTwnRl6z+dENgOwF4FTFKdWcT6BeL8339N8PZf4cJF8xELzA2HRY0YMUK33Xab6IjpFxCMY0JDtJGHvgdzhLDJz40AX331VT300EP25Vp2i3I1Ba9+PS4/sEOm9brQBM87QoURRFOm4PLly5o2bZp5NpghNng3VcYxC4+CjhmbTRmndexPY7/0sGHDTLPmzp1r27JcuWifJgQvcIFRbbR4RQvf5fNfE7wJLw4Fx7d2jHEV8oQ40ulM+cxvq1at1K5dO82ePVs5OTnhWRv8DQy8FsYiaAPwXMt1T/oVjm1DuAsWLLDdomhetBfMwfxABwM3zGsiLicEhOyfd4T6ei2zISHQie7cuVNsq73llltCe9ew6dFcMJo6GEihEZGEcOrUKRPsnXfeKcYPK1eutK+dRwOfPE4ITDe49YRoy8aSzwkBOnwTAvaTVoMKRxICzMvMzBSjW/Y0Ez+6adOmWPA2BgHbPKOw/iAcCLuBGGfgLfXp08fGH/wf7SZ2mIOwrWN256ImsE+AX74JAYliIpytdoyBIO7c3Fxt3brVzjxic/nSpUtF3xDLxTgYATDkr68J4XDoHzgZDI1D4J988omdt4HnBS6NXQ5f4NP5o6VNlWkMXkPvEqIJSNTNDNLq3QUBtE46zaFDh9q0xLhx4+ywj/B8Ln9jT9jHGIHO323njcQgtIW+54svvtCDDz5ofQ/jkQaPUgir1AmBJ/NQ4SYvLFuzfzohwAPfNAFgDGyIPaK1hl/sJ37ttdfs1Bfc0p9//rnJ8UB4+fDftFBmarHZ1BlJCC4Nr2vWrFk2FhkyZIgN6tCSaC7GB8zKonWN60400K7O44SAkH0TAoSzPxegVMAFkzhdZerUqXa+BefaffXVVzbKdYy6Gr2GU5wm4AoTDdFQKwW2uzleB8FzyAl4IJjGzJJj+LXqmP0XgussPT4yfcBhHpx9lJSUpO+++04pKSkNMq9h9gffwCC0jCljBNyUECiFWdq8ebONH5jW+OCDD6zjpmykywkBLeB0AzroRFwJ0QRsNb51WeBK58f5dwiAI5U55oZRsXNH49IEb5KQsYIzRU3BIV9qaqo+/fRTm2nt0KGD5s37SBUVMNex/AqbXdwRc/30cfR1TdVxpXT0v3wXAq0K25lXVKKcwuA5Dxwuu27dOjNDnO64atWq0HxO9KjWy+mNZGmdhKI0pAnhpWAggzXO3v7www+tXxo27AUdP34ybJf/lS8kkh8GmRvsjUWceQ2H29zfCRECLTwrr1Rp2aV22u6K/yzXc88N1aBBg60fYMo6lpFrRCK9EbObtohWCDAWD43TZZgoHDz4Jb05foaOHTvtHf98tRBwABj3IKsyB1AAAAWySURBVIzrQgjWempqlFdQrVN/lOqX/17SK6/O0mNPPKuZM+cp+ffDUbXaiIwPT/SEgL2mYzYGNWDbw4u533hG9A9jX/uXOj8+WrPnfKVf955QVg7RIcFcMBx60Db3xcGrjZaDGP/Td01wqHC+xO49GZo4eb169JmjIcM+0vbt+5SXk+eyNO/pmQlMEebPMSxaoGgrxywsXvKjkp6eop59Jmn6rHU6fqpc3jf2Qr0Egg7t3oy2ghjyJUQItJb8/Dyt+e5nPdxxgoY8v0wrVp9XRkaJqv2IWYdAz17TUu2Ocaoa81VZGVBaWobWb9irXkmfaNxbm3X2HOu9QQ66Vo+mpbtpixiYG23WBAih1ryN79bt0OBn39aNLbvo/SnLdf4iJ7JHi1Z0+WAkXhj22gkjupJBIZI3Na1W36y+rN5JU9Wx88t6Y9w0HT58TNXOJkk2W9vQxvio62skI7jj5UGPffYRNw77ygtaG0/zDrwVM0csBZwddmk8y8rLdObMKY0cNUM3tuyuxx7rpdVrvldFACFQURCmKx+qy2vJVleY3w9MyxuGl6V5J5QRr+NGzOSLmDdsos+ZLZZGq2uqlXy0RvMWZuj1cbPsbLz/+Z+/aeHCz8yVdXwL4RCJBx5eDm6ILmhwWurx0C3FAs/RAL0IgNlgeN+CWCHi8Jk7pwBCYMjO0h7fhnRzNPjLjFTT+fCn931KgFbU1OjE2bOaO2+ennxqgHkeu3/dq4tp6faBz/zS0mBoBytifGiVj596MUIQjBeSWVhoOADfRSszGQhe4GdTB+6LT3l5upiZafhCAO/4RCMfE2VOyWkIE4nQwI3mwHzyQtP5tHydPJerCxfTtHjRYvXu3UfPP/+CVq9ZoypvtM/ZrtSflpcXiiABV4cXK4i2uud90JR6yE+HDl70PwTEYdLIC/9gPu/BgfzQSxxVC+JHGZSANEKgtVCAjombigCKe8m8UG5JSXB+yJuko+z3Gzaoy+OPW7QEM5YFXkhKXnGReTEgBAzmloBJK4YgBE6dHGlDIwAXECWNvMCmEZjaeo3DllD5qqs3bcE7ylGevNZhQyxftvVogFCEQJ35JRygCwODc0iHkw9rypQP9HCHDho6bJi2bt9uYTPQzYg5xFiv9QKXuuAXcNEC8lIXuGHCnBDIgwB4Uje0uTkpNwnJ/y3ceWwQDsCQGnqjUgqSbioXFuDr/k8+fFhTp0/XTS1bauSoUdq7b6+KOdjPi4QDoVB5b7rBpTnTR90wk3SntkaIl2Yq7qYsvGlsyoTU28PL4Hpqb9Fwrnw9uiiLUCifmZVpUyvELbHax8GFRAPyzU0WdZwr7OoCrsMVukh3DcemU+rVFcrrzJHXyBCKeXmsJwAknhvNyMrKskUazjx9/oUXtGrtWmXl5QWH+p69bwy2E0JjeULvvLNEaTQQEC6EUJ4YaHEMREsZSC5bvtzWOggU2Lhhgx2eiGZZPR5j46mnoTIIDq2l4cQ9iwriixYtsshovgK1aPFiHTlxQoVeKLnr4Px8QhBMwfw4z4W0eC7HHMoGxw+X7bQZjnEeM3q0fly/XqXe95bjraMxvNButITGELMQjBFVVdq9e7e6du1q3sXwESP0e3KyMnNzg15LDKPYxhCN9A4tcNMWznxFyhdLmmMyq3GEY7Zp00YvvfiiDh06ZP1DuMBigdtY3mYJgVbDGUVoAcuUEyZM0L79+0NR0TAJ6Sbqon48JrPVDSzqxFs3ax98+xnzSjwUE4/JyckGzgkqXtj1y8UtBBDhOJvPPvvM1gd69+5tawS4c67zTESrCScAAeNR4ME5ux7+vjm/wZ1ztL/++ms73v9vf/ubli1bZgtTzYEbqWzMQnCtoKSkxFoGJ3QRckgAl4t0o6PBxjk7F6liP9JgPHe4J+QHXAfDhFxebp8auOGGGzR27FhbFuVrKGihX1e4EP4fc34z28GcMxEAAAAASUVORK5CYII=;" vertex="1" parent="1">
          <mxGeometry x="30" y="410.94" width="65" height="77.06" as="geometry" />
        </mxCell>
        <mxCell id="9n3g0Q26KRdH6jhfDVG3-19" value="" style="shape=image;verticalLabelPosition=bottom;labelBackgroundColor=#ffffff;verticalAlign=top;aspect=fixed;imageAspect=0;image=data:image/png,iVBORw0KGgoAAAANSUhEUgAAAH4AAABnCAYAAADG+vbbAAAgAElEQVR4Ad2d6ZcURbbA+T5/wHufZnTmnHGc99yXURQVQUVHZVEQkMWFTUDEBXBhE1AWFdBRQVER0QEBxW1YRjwCyrApIJtACzTYNEt39V7Ve993frfjptlFVVdWdfajTsc52ZkVGXHjLhE3bty4Gd2uoaFB6urqpKa2Vmrr6qS+vl40r75e88gnj6vO8ijX0KAXdWtraxvr19ZKSUWFFJWV6W/eWV1gWxvAT9QuML1ytEkb9fWaV11bK1w1DqaVAydrA/iKr6t34sQJeWX2bLnnnntk6tSpUlNTo+8PHDggM2bMkA433CBr165txNW1ozj72gWetWF8AgfNg3fGE+OT0QBfHJ+AcaqoSApLSz38/bQqzo4Onrmoa3wyWhWe44vhUlVdLUXl5Y2wqQe+1BVR/oGrH194Bfx2ABe7hEeq6IOXbwhYOUrYZWUpQ4MVlZVSXlnpIe3VNZhawf2Ja1dhuva1ng8fiI5WVUlpLKbEWbvgZG1wVxwhur5eEPzcOXPk3nvvlSlTpqjgwTEnJ0dmzZwpN9xwg6xZs0bxRhCVrmMYvPg2mtBPuxSwNg0PH8762uEC7lU1NY18c3UNX2vP7kaDtm9/4vjS2HSDCrG4okIi5eVNZGfyURwdDOMv7bSrb6g30C26G9Law2prPWG0CKivMoIvi0YlUlbWKHjHCF+RJo+e4OfOVcE///zzTQU/a5YKnhGvo6euTmAgwoeWMBPw0Axcxqcw4AMLfp8l+ADAQxc8DDfiuIeVauvrpbK6WjUK6izhqPA1lrbga2ulsKxMtUqYeIMSuNBpGfXGGx+qGT8CK2PBh0UkcOpR9bGYp+ozpihBRVSxjRoYma7gz1L1cSMemHQs5r+weGJkAPNUJKK2TwO4c4WQskbwqEyMu+Lycu3lIdDmgUDw9G4MPDpAqhQ/4psTPNMIiTpcoQoeY6+2VgpKSqS0oqIRfgD8U9HH+6wRPEwrj8VUrYXKPBG1ciuqqqQkGv3NuGuGO+kKno6lncpZ082ATu+VWyGgTaqd/RAWb7JG8CDCqA991IioCmbEsCTSOT4F+9MVPNqEOT5WXR36iIcv8VcK9AO9zirBw3AVPKooEPrBCgGTEROrqtLOlapWOoJXqx51XFqqBhh1w0xMTVjeuswNkS9ZI3gIRKUxalCdYQo+3RGTruDBPVpZqUs+2gozYdzlFRZqx1K+hAQ/OwSPR6iuTr1IrLV11IREIEKAYQiHK8iITEfwatz5cA1d8HV1cjISUR+Ewva11ZIOljWCh4G6nIvFQhc8sDEcWTG0xhxPR2mt5Zwajj6vYKqlaNDOkB2Cx3plyeV8zWH2bBiBsJt47lJwJ50R38RzxzQV4hzPpMGFA4p24IvyJgX+QV5njeBBxE9gEOSDljH7gb0AW3c3VzcTwePvDtuqR+jgXhaLeYajOnGaQz7gu6wRPMzGLYlwwurVxgPgAZ97ENjpCp7yqHo0SxD4hleQO7ZPfiSiy0WF3dbmeFQZyxa2ZWFkmAl4TCPscDGCUs2T6QgeDYJAqIPbOWzBAx//A36INumyhXEsiXTEh+z6hHlNPHcpRk06gqfDKu746lthdw7Ybd5zB5H0ah1BKYSTjkYw4w5touo4ReV0BM8oR5sUtNLuHLxAS2H/YACHpQuByzSS0bZsWGoNOFwwHOL0OUTBIxw8d4wcmJjKxZKJ4FtrWxZ88W2wKmmTgofZnqpH+ClGZTqv0SKmkrVjpaicSPDVdBqLwPl/3pb1G3dhDjZvxJeVpWWbaOgVAlJk3Ejl2S6MKHvWMjDcjWTLtzL0bAyYkrgwIJORdoS4ugrDte/hYW24zkM+gkQdM+ppR3Gw9767teUXPDF3Z23LutCrtWvWNC4PnTqmntIJnu5SvN163N4Z7XY3Hni/jQa3s8i2LFvW+t614ZU1Hvv4oG3bb/e+EWTjgLK6nuDZCvfzwWAmqdtOCXVrTQwob1S5EebPozHKk8fdu1xgIXOvbcsiHC6F7xrnd3xd2tO1v81/rp5XjjbdlmlZZaXOZ3QA4Carq23X1TXG3M2dKz169BB/6NWhQ4dkxsyZXrAleFOHNTxbs4qzw13p99ksRkNzfDK+GA3UISiSFYnC8/FPafAFbypdQflUV6ehYgRbMpUo3Unq8k7xcjJUwcNYdr0wnAhmhLEghNoGKLtKRgSOCMpxBxD5CJs87oxIrtJoVOtiiSsxdXWNea4ceTCCeQ/jBKaDHIzHLQs8fAIq9JoaKaqokNMlJZqPoMCXctSFqQZP88rLlSEabDl3rnTr0UPGT5yo9FB3z759MnnatCaCp60Tzp8O/hZNpDyJRj2msmLRPPjkOjx5tAut5sCK5xMwybNy8Bc+Wx62C7TCT2IOaAO40OXVhVZwc3nQzo7iyaIiFTzv0CpoXOOn8Yl84MBj2mqnPaGhQQGCOBVMyFW1tUoMjAVRRjyVQEgRdaOTZzoHjSA4CAIO5UwoIMt7ylke7VRWValAQBpcYKY6gVwnop7lwSRrV3GrrNSyNkqrXV3qg4MJvnuPHjJp8mSti+D3/fyzTHvxxSaCJ8iSjkWHpS5CACdoUCa6qcDLQ8hupFqe8snHE+MT+OMVZFQaT2ykQw8DTDsbbdTVJeaTlXMayXhCJ0H4wCYPHgOPZal2kNpa/U2+0uUGVzsINBXOMoPfXh7vmGds3nPP9t7mGd6TByNUaBZeHV/XB9ur69q3NhS2w8NfBiJ4Z/Muz/Fl7bfZBCZ4b453muxQTo7M9M3xMJtOB+7aiXx2iL8dxcfh4eWDv83ZdjeeujsCySso8LZlocWjzT17uMfVPaucr64NClvOKQzji+OVh6ePp+Q1xtWbRdSCOwii5kCC6QFmmIHSArBeVYi0UcJzqkQZE7wXV9+MVW/GmXWsVPDTec+AUHXsjF54FUYCDp1KBZ+JVR8KEj4Vx8iB8WERCH4wj2kCIlHXqVK6gtcR30qBGIwwmwLhSVh8yQ7BO4JgICMzTAJN8GowtcJ+PPgycpgnmQuDaJRUHc//XgUU91mU/32mz00E719CBwAYqqoHEbNqeQ4z6agh5s5Z/6lgJxzxGJBJHDgq+FbYlgVPtBWaiuWoasIAU1Uq+nifNYJnCWTr+NAF73wNMI5OkCqlK3hTxwgpbNyxps1z1/YEj4qvrVXPHWtVCAwzAY95kuUPozZVSkfwKmznHVTBBOhYqdr33rvVDuvy8mg01Ckwq0a8+urtGzGP+pY/YNC12LhrRtUjcKYRRmeYIx5YNk3pli8aK6RBkTWCVyKdKjaCWy7yRgiMytaKubNt2dbYnWNSghfgb0ZvkKkqCN+ySvAQFzaBMIFRAvPMS5eKMZQ/ax2fZMSr4J13DasehoaVgAQ/zvg2adqc4FnK4ZLEwDNvVmgMZLnoVGQQwaQjeARDeeyHsFU99APzRGGhhl+pBgiJKVkx4m1ENvlaNsSRA3wY2BojXo075mKfDyIk2SgYOhb+dG9bNiS+ZIXgQcL83XjudFSGRKCNmtaa4xEMF3iHHXMHH7jwb3ChtehgYSTgei7bc+3AUc+duWtDFLxa9Wz/trbnLuSvZU3waCudRtqq4D0CQxQ6o0N7dyut4xntNnJs2zeMEWl4M5UUt9V1vM3xGHY4KsJSZ54AnMqkA2AVp7K7aT+oVY/ggcm+OpqFNsJMDAaMO+Z58DIjtaVt6GCw3blzpeohSEeNi54JW/AwCwYinLpWELx/CzlswTPi2QDSKNu2JniYxfxOFIqqywDCSafHMxJtd07nyhSV0x3xGF4sRcM27kBTR2Zb352D4aaKW6Iw0bb+kQesSkLBqqtTiLzxNXVPnz4t//jHP6Rnz54ybdoLUlfXuGV85PAv8vJLjefcrVu3TiuAcymCD7APEAgBXyFgE1qlHTbEAaEdKlNVX1/fNHwaYJlcKnC3DtZlS6PkMoJF+3X1DVJZVS8VFfVSVVWrsXnlFVEpLS+XKLF3xP01c0WjUTl69Ki89NJL0r17d3nuuYlSUFAu0WiV7N9/UKZPnynXXXedfPnll1LBlmlFheQXFqoRFksBn/dlZTEpLauUWKxGamqIzE3ON1S9reO9gZEhn/2yARZxhgSi4m7mt/99c8/t6uvcJ09u7mEuzeTC7Wm7c0R5KhIZwqL92to6OXKsTr5ZXyL/+tdOWfnZRlmy9At5//335f1Fi+SDD7g+aPZ69dVXpU+fPnL55ZdJp873ygvTV8onK3fI4g83ypBhE+VPf/qzPPXUUwpz0aJF8t7ChbLQg58M9iJ5551FMvfVj2Te/PWydNlO+c/mn6WkJCZ1dS7+Lo5upg/vKJS4d5nw2urAcxxanuDZUg4Ivx3rYoIEWnoBBwOGfWcu4KkXL0PYhaXl8v3WozJrzrfy8JAF0n/gROnXb6j07t1b7rvvvpQX5Rjp119/vVx88UVy2eXtpcsdw2TwsLdlwIOvScdOD8pf/vK/cuutt0qvXr0UXhDYvXv3kp4975O7u/aT7vc8LfcPeFUmTV0pew/kSaS0XEqiTXkJD4iwPX7mjORxyGGG/EgkH3jOV7jwm46VjizboYJQEy29gMNFiDIbEi2Fd7q4RNZvOiCTX/hcbr/zRWl/fX/p2q2PjBo1SkaNetTdeW7+euyxx2T06NEy7JHHZMADz8jwRxfJkGELZNDgKTJ69JNa/9FHg8OjvZEjH5UHHxwpt9z2iHTu8pw8PnaJ7NhzVM4Ul0ikPDEv4QsXH2ZytZQ/1Fd+FxdrBO9xF8UbFG47DB6dd5xHKdNn89iZa9J+ZwqvprZOco7UyIrPj8u0FxdJvwGj5YXpcyU396gUFhZIcXGxlLDjFeAqLS2RI0eLZeOmYtm1p1x27ymTgwdLJRKhfnA4tFVUFJGjR/Nk9dof5amxC2Xcs+/L2q+3S0FhuRqP8fQaH1iGYtzZ7/hymfzG/8D3BTby1R8RUI7tGup/i1X3QoudYZbObwwJtV5xTbpvzPmdDgx/WYyl8ooGyT1WKl9/vUH69OkvnTp1ltmzZ8uZM6d9NnPqR9CorBKJFDXCjMUapLoafIOfxddoKNVLJFIoX365Svr2fVju7fmQzJu3WCKRUqmpcSFbcTRTD4H4t2XJ89Oa6TPzuXkcmWb5HRRWqMGW9Frz3DUyKvMFnfGmprZG8vNPyJtvvil33nWn3HXXXbJz165AIdbxXaKleyN06B07fpSJEydJ5863yuTJk+XHH3+Mb+as31j1FnMHRzLnSlPQ8NgT/Ln03EGgf1tWe3ZTXDP6RYc6dvy4zHzpJbmxY0eZN2+eHDx40NMsGQFNsxKj9uTJkzJ//ltqYI4Z85Rs3749EA6od2Lu8Ny1TcG7YAbb6AhL8MgIj+D3W7bIsFGj5MqrrpLp06fLr7/+qoxPU4ZpF4eOSCSiy76///3vcvvtt8vGjRulzH29kopO3tvc3uYED3FczOtc9jttLiepwKg/XVAgKz77TG7u1EmuvfZaeeGFF9S4o63WSsDGYbNlyxa58847pVOnTvLaa6+pVxCcUia/7eM2gMLCFzjnXNWDhCFirsmUTEmjALCZSvLy81XV8/9k7rjjDtm0aZOOvDRApVWUPYKff/5ZD1agPeZ1m2YCAXJ4s5Zvk5s09H7mQT4zNs9dIMYELGQdi3ZQsS+//LKgdidOnCj79u3TtgOCClyMNlnC4dXDvUubdALDJRAgRiXbspGIrt/BP5CmCAAcPM75iIcYRiQfU2DIhEWc0c8cie1gO2hbNm9Wx0z79tfKsmUfS3FxkRUN7c6ZOd99950MHz5c/va3v8lnn30m5eXlCh+mB0puOceBE3ZIRFi8yQrBg4QJBwEFZkwg7sWdZcvGRFGRfPrpp9K9+70y+okJsmbtBqmoKCMQOyDEs4uxrsd3gGwrKiplz+5d8uijI+W2227T5SSbPia0wPS5KdAz7tzvs1tPPydrBA8iMIYrTOsVlqBNGO34rHlmWsnNPSZz586TvvePlfET5sl33+2RSIRzZtJnYmMbIoVFDXL0WI1s/yFPXn1tkdzU8Vbp27eP5OfnZzydqIBsW7atrePxGiFw9p3tWI+AyjCQlGAewjbDkd/RaEx27twn4ycskF59ZsqTY5fLpi1lUlaeWbfDSK+INsgPO0pk1uxtcmfX6TJg4FOyZMmHwjYvbWaSMBDPFBdrp0UfZa6TmrauHSrT/fhMiWmKQuNxKZ5xx39bQqXFF2rBb/D0tIkTAL8jkTJZvXqnjHp8sQx8eJGsXXdSiopTH5yQCBXA1tQ0yPYdRTJx6ndyV7fZ8t77a6SkpCjj0U47nnHHdnWbE7yLHfd77hIxN9M8sx8wkOhglior62XnriJ5Zc4quX/AJHlk+GRZtXqdFBdHrEjge2Vltfy0+7jMnrtSevd9XiZN/kB+2n00cP1kBcHdjLvMdFFiyNkx4t2I5KMEvpgNS5MYyYyaUne8F6qTxAitqmqQw0dqZM3aHTJ+/ES54sorddv0+++/t6qB7gR+nDhxWubM+Uju7jpU+vR9WDZu/F6jcwIBSFEIftilm1cpygd5nTWCBxFGoxp3Gc6HyQhG8Bpsaf9b1gmebeXa2gapqIjJTz/9pP81+pZbbpFp06YJyzFwSZUowzJt+/YfpFev3tK79/2yZctWzYOmMBIGKRfw2pzgYSA+da6wGGZMBzbCV8PRCROZWDvciZ3btOl79egRebNgwQIpLS01EAnvv9XbJEOGDJGuXe8WQraAZbATVkwjk8HgnVffFpdzCAe3JCqZ5zAT8GAggR7JRgyCKigo0ADLjh07Srdu3WTv3r3eFi7v44UJzMOHD8sbb7wh1Hnuuedk586dYaKuHbbVjzs7V9uyMBQmmnGXiMkt4SawiWKJcvJmkk5Fm6h3HC2cXYubdeHChZKbm5twCgImkTx45EaMGCGDBg8Wwq2BEWbCuOMESk70AMdkHTfdNoF1zl22SpA7nxYB8ZsrrMT8iDYh0sSMu0SwaZPdtK+++kp69ewpN954o45mtnARtOHEHT/8ypUrZcCAAdLx5ptl3oIFknv8uFcmEfxM8/yeu6wRPGoUZGAGF8/+35av7/DKxZf15UEgQlKYDq7BI89f9yx4zglk5RQHB4OezVKOkcNcrzB98Axfyz+Rny8ffvih3HzzzRpBu3Tp0iYdhk7wyy+/yLBhw6Rz587y1JgxsuWHHzS+nu5q+IMjSXH18yWONi1n/HN0kEdteMJqhwHh4Wm0UsbRwTvKGv1a39r00eqVdwdCacyd2x8x+IqvwfLVNdjtEJItwcxw4m55jC6AcMdlqgfkuoN0KUcex4fASL5pi7lTmilHHQiBYNScHaRLnm24eHVdHqFbwAQvVDrltK479hvDkfdY+BxWBCF0Cp7Jp7wxL/fXX2Xa9Olyc+fOMnjoUDl4oDFqhzon8vLkvffek8633ioPDRok6779Vv/HO3HqXIpHLOZ1Fjqb8UT55P5jBnQarfxfeMpRN8ZXOdAPT6qr5VRRkW5eeTwBX8q5w5DBCdrQapanfHK84x1l4DMHPxvf4S3RttgQwDMZUg58+YDV6iqfXN12nNp8xoVFm3MEAAQHni4uViYgeBiaX1SkIcLMsyAFgaeKizVUGAQgFCSOFRRofZAAAYRkMWeUoy4q2/7tJvUQNDt7bF/SNswnn95Mu/joqQtMwpQpxy4gsMgHHrhgYwALZgPn0LFjMmT4cLm+ww1q9B07dkw3eFYsX67GXP8HHpCPV65UmNBPZ4NhwIKZPEM/8Cx03PgE/bhiuTTA1J3QTT34AG8RFlvVuadPy0n46XgCnsq70lLtuNBhfIIWyoEL+/h0Gnijg4sNKh/vDK+jp04pj4EBLHgAvvBd6zo+EX5Nu3psOT1Be6dTCVTkNxeqgwQBJgzewwyvHKPdjTyQ5r8xgLipHd5pXd8aH8S8PKcivTzXrmoaVw7hwmg6AD2eupSnDO3wDL5eniOe0fivVavk/n795M8XXKhW+6hRw+WqKy+TCy74s36JUxCJKP7AsVEFLNoAd6Xf7auTT14T+o1Prj5luIBlNDCKGXnU9bdBOcoYPKPLX9e/PjJ4yjuHI52DTq6DyvGEcsjV4PHbz6fQo2zRDFxhJwRaWlGhBKIugyYYeObMGflk5Sp58OFnpN+AZ+TW24dIl9sHytSp03SeBxYCQX3SYWFSayVgpwMf/IsiEV2m8q1gk7pxVn06OIcqeCMK4yPshODTOeDQ3z5yLC6uka9WHZB7ez0vHW8ZIxMmfyTHj5/UORwxM1r034/hfAoZf/jCyKbDGo/8+CV7RrXzxS8rj1WrVklhYaGqeyuvcM/57hyq350qgUoDqTCTqUc6AM/pJBh49GiuzJnzhlzwl0vlv/77jzJw4FAN2WIUkRAMUwkdIGzBgzPzKvZKUMFTjsjeJUuWaFTvE088oeHdfm2XFYJHGBCIVcp5L7g88/LyFPkwOgHzEwJUwaMuA0qeOizb+E6eL3G6dLld2re/Tq677nr9bm7btm2e5Y661zk45E5Lp8JAYy5WO6IZ+MYrBIzXceTIkfrPlF5//XWNNfR3+qwQPEjANKzKotJS9ZbNe/NNjUU/cOCAx9yA8jqrmC3tmIcRZhDBwzy8doRDd+3aVb+MxTULE0eOHKFfyb744ovy73//W44cPapLMBgbBPZZCDaTAUwGhK4QUkTgUBb6zI3M17zgyAaUfZpmTWWN4BUR1vvRqCLK58fEq7HpcerUqbRVtBHIHSFi3LHZ4Vd3/jL+Z8rgrXv77beF3bqbbrpJBc7XMOzE4Y+nAzzw4IPy4EMPydzXXpOf9u6V8ooKP5iWPztjzkY6POI5WQJvjFHwJoqYT8b4eIOkndJXN6sEDzL0WJD/6KOPdKMExq9evVpdpMkITpWPimf9XByNphQ8DCJG7p///KdcddVVKnhGOjgxasAPty6nYq1YsULuv/9+ufqaa/Rfku3bvz8VKum9d4JmTW9Lt2SCh3eEjn/yySfC/9Hh2wF4CC0k3nNZ4pklG0tcphH/OyuT7B6qVQ/DcSjgtaqqqhKcJXjHBg4cKIMHD5Zdu3Z5eKSDJJVglq1LmVISJWCCA9YvmzOoSS6+tUPlW7K2KYsdQgfp37+/XHvddTJl6lTZu2+fFW353Xk9WWfjtMFwTGQ8ghMXWmro0KF6bg8fisJDNo0MZz9C5GWF4BEIxFlcPSOLnTJU/RVXXKEfJGBokZ+IED9R8c8IHvjURWCWgGOwYNDx48cFvzxHoFx99dVq1MG8ZAlYTEPLli3TTtL5llv0uzzwDDKlJIPr5bulnBp3dk5NHP6UpS0657vvvisdOnSQcePGaSeAXpLR6MF1eVkleFyEJhDmU9Q835whfLZLmWfRCDA9EUF+4uxZXan4svGf+2LuDIbN6WzMMJ/DPOZw1HuqBHNPIvzly6VLly6qYufMmSP8K1KmBOuoRlMqeE3eOy1k+wh+GDyDPx0Wdf7WW2/JxRdfrDig4snnfbJE/awQPKMSz5e5a0EYpuGE+OKLL9RQYRTSm7FaERbIB0m2VMQl7B+JMIY20CwYRAgd4WHJ08H8ZZO1Aw5MT78cOybfrF8vCJ2tWoxTPp+i85gAguLrtWXGne2U+TQUZRAuvGBAtG/fXnFfvny5tklbzbXHu6wQPIioOo5bEsE0nBGLFy9Wo+Waa66RGTNmyO7duwN/5ozgWQ7Fj3gEi9AZLfzzYPuaFVUdNNH18GnjYOE4Nb7FY3piS5dl4Pz587Xz0sFIqQQS3y70g7s6h3wdHa3Ht3jwgg6LPcJJXnTYIClrBO957pL4u1H7zL98dUrv5t98wmTznjXHVBvZdACzihE6czqxdQid0ClGq9+QC8RA89y5rVTawi7gG3yieFiVgDeGYCbCB092Os1zB04Iff/+/aqZsN7RUnQwHF9BU9YInnkY487m+HgCYCjBj8z5jCaYOmnSJDly5IhnuSYbTVjC1EfolOEZQXDuHYEUjHSETswd79JJjHiF7fPcISxUPF/IoqH4Hh/hG3zKg0eQhDbRbWl3iDFLSjQS5/nAA3wdwLZNmKBwKXfOVT2MYDSw94yjJRnzQZY4NzYdOGr0yiuvVNcpX6WiEUiJCFdVTwAGnzK5HTeWikTTMlow5FgKJWu3OQHRHvVog6nK2ocetAfLwcsvv1xXCVOnThU8kYzYoInOqlum7IlXVem5ORysiNA5bIGYP5ag6SbwPOeCV+bZJk0SVe8njG/RWD+zvufAQoIdMaSSzc22iaKBBKdPy/sLF+oBhqhJRnqyev42kz0rA13cvm7L+jQGHQK1z9GoOHow+DBOOQo1yIrB2qQTYYtgrXP2HnCgHX8DsX+ZpKwRvArfZ702RwwMZamEccOIQp3aHM3SJn4pw2hk9wzLe/mKFerOxCvH5gsj3RI4pJuow3lxdCocUPEwEBodlZMwnn76abnooovUSCWgE09bcwk6UeH5J0/KG2++qctMlrWzZs1S2m252ByMZO/AMytGPGqSSBOWRvHMi0ee9zAF1Yfg6PnMdTCVEbVhw4YmH0NQlg7BebOXXnqpzul0GPL8mxep2o3HQ387BmJ5+2FZWdpG+OCKMYrQLrvsMnVH4/jhXaIELnSMr9etkyfGjJHLr7pKfRnYJYx+Ojd1gZ9JAn7Ggq9vyKzReESZdxmVGHcchZLILRlfx37DbOZS1q9jxoxRCx1fNYbVnj171NI16535nJBp1DvMM6ZnJHBDwHVC8wzGw/L/ZvTieuYIFgxUVPbHH3/cxBqnPBqCToJvoWu3btK1e3d5bPRonc6gFZot+eFbXpA79TIWvDbqcxQYEv58nlGgiS47SZEyMI51thpgVsdgo4ITqWH3nvqMKNb2fPd29913K1M52YpNCwTNocQYg3PnzlWnhzFHcTWj0ODZb7tbvt1dvtHEqMOOoPMaPODbxGF53FHP4PnMM8/oijUn//AAAAcfSURBVAL38Jo1a3T9zUkd+/ftU4cV63McQRyPNm3qVNm2davSSFvAUZiGj+9uPDX69O54p/UUscb64HzWJg2wHO52N1qsXd2kMVXG3ZCyPFNFWKZcOircskrznBq0fHogyxf7bTANnsEHgfg8fiP8MwUFsnnzZvVmsUzD+j3vvPPkr3/9qxqBtvY3O4B6Bgt8aRuC/fk8+9v08HN0YdRpIKdzk3plHa32W9vBIROLqTaiY+J8QUPhROJ4lgkTJqjjB4FjvTNtsQzUwEcXhOnHzeOx8dKpf9q0dv1l/HwHb/wDbFf7yyj9zchLo2zZ7tTjtKNRT2gYOWz1oboBDqOIWKURRrUJFx+0lnMx6AiePDZquPMbhKhDXeLmjOkaQ1deruXIo/cS2q2h0mfOyLfffitjx46V888/X373u9/JH/7wB13+TJkyRVatXi2HDh+WSEmJRt1inAFP8XXBmOpXICKIyFxntHHXk7ksBt2FjmPYEe4NzgiF8DH8EZSFfvKwAfgNLQiec/e+3bBBxowbJ388/3w5/7zz9JCku7t1k7HPPadn8h3MydHlK1FJ8Inv5OGHxyd4Eovpb/KAb7yjHBqIOsq7WEzxYJqgjsrCfV1ku3/Qqgaqc0qBKzyBbnhs9LfD28ZeMYBgHMxXwmtqFAkVni9PicYIcgLFmANZK8fdGOb/MIBYfAggTwXPnrhzwSpSjkiQpiMylzJ68Mgxlz7yyCM6kkYMH66jq3efPjJs+HB5fsoU+fKrr2THzp1yODdXfQjQRKId/pWJ4UFeDQZoTY0yh45Bgrm0CW3Q7+XxsYT74AGIPB85flz+s22bhmy//MorMnzECLmra1e58MILVfC///3v5aJLL5VZs2drx1RY7AAWFWncHe2YQKEV3hl+ikdlpZdn5Rhw4EZ5HSCsMlxd5MZA4dsIlSFxg0YDH4G4f/lqfgQGLDL6TdWjZuJUPYjAHFSLqRx+aznLcwKzXqzzDVEyTuUmquupMIPv2jX1R0fIycmR8ePHq4OGNTTqXQ3AFSvkySef1HkT6x7HysMPPaR2waIPPpBNmzfLjh07JOfQId0f4F+OMDqZl7l4xvDSy/1mFcJvIof8ZXGfnj5zRnEBJtPPkqVLtbOxBr+hQwe55JJL1KXLOfasRvhnB+BEcOT6DRsUJp0JwWv0kFPjpq7j+QRvlce++HjyTDZaz02T1EUzMfJ188p47jo0fE5UlzwVvAmiJXeE5v1rEue5CwrPzMaGBg45qNXIGJZMfK/+yiuv6HIPAun1JwsK5Ne8PNm+bZu6a3H8MMey64cfgFAlNlaeffZZWbt2rXrJiFfDEk/3IjyL0GbmbD65xsuGexifA3sNCJulGadrsqzEI4kHkn98gPDRUnrmbXlZY3BKTbWwioJXQXnTXDngMIJN8H64aJrm6raD2WEkbcTN0/RwfqdKjUflqxmi5dEajHQseJiHsWRLH4hC8PRs5jimArZ70QQwG/8/vgCMKQRCRA2GIS5djEPuyS7eJ7qud370fv36KUxgz583T4Mz169fr22DQ8z9g0Voxu3MUea4dsGBjzLpHCdd+BQWe6NAUnEn9XvgMOWqlj2XoVcggoC05/mWQslIqKsXKSuvl7z8OikprZecX07I4g+XyaBBg9T3jlfPEp2CObbMGV+Wb3faRAicffPNN99oyNfjjz8uDzzwgC6puCe7CA3r17+/9O7bVz+1YglGHuUxLt955x2FCWz8CckS9JPQWoRGv/feuzLqsSdlwMDHZN78pbJz52EpKSX2DuEngxI8P2sEb9uyzNE6t6eggf9CcfJUg2zZXis/7Y7K4g+/lTHjputo+eWXnCa1m3SqAFyjIzBvo35ZW3Nv7mK59Wt+vs7p/vLM83S69BNOnAr5et0m6dvvWbmx41B54qm35btNuVJcwsqh5ZLPGsFjlLB0wKoPIngQr6xqkJwjVfLu+zky7tll+m+9TpzIPytyxgSPYcJzkGR1TAs1dzcjiLu/XNC2EuEDHLahN27cLl17jJf/uWSYDBn2huzbnyvV1b957hLVDZIHbudc1UMkI4OlAnMxgk+VMD5PnqqWZZ8elAnPfy6v/uNr2bL1SEI1iAVr62iew05YOlVYxQHwTqdtjmM7dKhMXp/3H+nR82W5vsNQGTN2smzbtv2szp0OXMpmheBBwhBR4y4FFXQSvmf79LPvZPrMz2T+W5/L5q2HpbRxS/6s2sybrHlZEtla+6xCmWYQK4jrMxpVBwedOIxEH+LTvON5Inv3V8oHH30vgwaNl9u63C0zZkyX7du36fSTaXvG7+ww7pwLFKSSJYR++vQpef31N2T4iMfk9TfelmPHGoMoqJaoLioYpwXGXdgjHkyb25ZNRkeQfJRTrJJPqGJSGInI1q1bZezYMdK7933qj2BfP2hQaHx7LRH8/wHH/sr+AxXiZgAAAABJRU5ErkJggg==;" vertex="1" parent="1">
          <mxGeometry x="773" y="390" width="126" height="103" as="geometry" />
        </mxCell>
        <mxCell id="9n3g0Q26KRdH6jhfDVG3-4" value="" style="shape=image;verticalLabelPosition=bottom;labelBackgroundColor=#ffffff;verticalAlign=top;aspect=fixed;imageAspect=0;image=data:image/png,iVBORw0KGgoAAAANSUhEUgAAAH4AAABnCAYAAADG+vbbAAAgAElEQVR4Ad2d6ZcURbbA+T5/wHufZnTmnHGc99yXURQVQUVHZVEQkMWFTUDEBXBhE1AWFdBRQVER0QEBxW1YRjwCyrApIJtACzTYNEt39V7Ve993frfjptlFVVdWdfajTsc52ZkVGXHjLhE3bty4Gd2uoaFB6urqpKa2Vmrr6qS+vl40r75e88gnj6vO8ijX0KAXdWtraxvr19ZKSUWFFJWV6W/eWV1gWxvAT9QuML1ytEkb9fWaV11bK1w1DqaVAydrA/iKr6t34sQJeWX2bLnnnntk6tSpUlNTo+8PHDggM2bMkA433CBr165txNW1ozj72gWetWF8AgfNg3fGE+OT0QBfHJ+AcaqoSApLSz38/bQqzo4Onrmoa3wyWhWe44vhUlVdLUXl5Y2wqQe+1BVR/oGrH194Bfx2ABe7hEeq6IOXbwhYOUrYZWUpQ4MVlZVSXlnpIe3VNZhawf2Ja1dhuva1ng8fiI5WVUlpLKbEWbvgZG1wVxwhur5eEPzcOXPk3nvvlSlTpqjgwTEnJ0dmzZwpN9xwg6xZs0bxRhCVrmMYvPg2mtBPuxSwNg0PH8762uEC7lU1NY18c3UNX2vP7kaDtm9/4vjS2HSDCrG4okIi5eVNZGfyURwdDOMv7bSrb6g30C26G9Law2prPWG0CKivMoIvi0YlUlbWKHjHCF+RJo+e4OfOVcE///zzTQU/a5YKnhGvo6euTmAgwoeWMBPw0Axcxqcw4AMLfp8l+ADAQxc8DDfiuIeVauvrpbK6WjUK6izhqPA1lrbga2ulsKxMtUqYeIMSuNBpGfXGGx+qGT8CK2PBh0UkcOpR9bGYp+ozpihBRVSxjRoYma7gz1L1cSMemHQs5r+weGJkAPNUJKK2TwO4c4WQskbwqEyMu+Lycu3lIdDmgUDw9G4MPDpAqhQ/4psTPNMIiTpcoQoeY6+2VgpKSqS0oqIRfgD8U9HH+6wRPEwrj8VUrYXKPBG1ciuqqqQkGv3NuGuGO+kKno6lncpZ082ATu+VWyGgTaqd/RAWb7JG8CDCqA991IioCmbEsCTSOT4F+9MVPNqEOT5WXR36iIcv8VcK9AO9zirBw3AVPKooEPrBCgGTEROrqtLOlapWOoJXqx51XFqqBhh1w0xMTVjeuswNkS9ZI3gIRKUxalCdYQo+3RGTruDBPVpZqUs+2gozYdzlFRZqx1K+hAQ/OwSPR6iuTr1IrLV11IREIEKAYQiHK8iITEfwatz5cA1d8HV1cjISUR+Ewva11ZIOljWCh4G6nIvFQhc8sDEcWTG0xhxPR2mt5Zwajj6vYKqlaNDOkB2Cx3plyeV8zWH2bBiBsJt47lJwJ50R38RzxzQV4hzPpMGFA4p24IvyJgX+QV5njeBBxE9gEOSDljH7gb0AW3c3VzcTwePvDtuqR+jgXhaLeYajOnGaQz7gu6wRPMzGLYlwwurVxgPgAZ97ENjpCp7yqHo0SxD4hleQO7ZPfiSiy0WF3dbmeFQZyxa2ZWFkmAl4TCPscDGCUs2T6QgeDYJAqIPbOWzBAx//A36INumyhXEsiXTEh+z6hHlNPHcpRk06gqfDKu746lthdw7Ybd5zB5H0ah1BKYSTjkYw4w5touo4ReV0BM8oR5sUtNLuHLxAS2H/YACHpQuByzSS0bZsWGoNOFwwHOL0OUTBIxw8d4wcmJjKxZKJ4FtrWxZ88W2wKmmTgofZnqpH+ClGZTqv0SKmkrVjpaicSPDVdBqLwPl/3pb1G3dhDjZvxJeVpWWbaOgVAlJk3Ejl2S6MKHvWMjDcjWTLtzL0bAyYkrgwIJORdoS4ugrDte/hYW24zkM+gkQdM+ppR3Gw9767teUXPDF3Z23LutCrtWvWNC4PnTqmntIJnu5SvN163N4Z7XY3Hni/jQa3s8i2LFvW+t614ZU1Hvv4oG3bb/e+EWTjgLK6nuDZCvfzwWAmqdtOCXVrTQwob1S5EebPozHKk8fdu1xgIXOvbcsiHC6F7xrnd3xd2tO1v81/rp5XjjbdlmlZZaXOZ3QA4Carq23X1TXG3M2dKz169BB/6NWhQ4dkxsyZXrAleFOHNTxbs4qzw13p99ksRkNzfDK+GA3UISiSFYnC8/FPafAFbypdQflUV6ehYgRbMpUo3Unq8k7xcjJUwcNYdr0wnAhmhLEghNoGKLtKRgSOCMpxBxD5CJs87oxIrtJoVOtiiSsxdXWNea4ceTCCeQ/jBKaDHIzHLQs8fAIq9JoaKaqokNMlJZqPoMCXctSFqQZP88rLlSEabDl3rnTr0UPGT5yo9FB3z759MnnatCaCp60Tzp8O/hZNpDyJRj2msmLRPPjkOjx5tAut5sCK5xMwybNy8Bc+Wx62C7TCT2IOaAO40OXVhVZwc3nQzo7iyaIiFTzv0CpoXOOn8Yl84MBj2mqnPaGhQQGCOBVMyFW1tUoMjAVRRjyVQEgRdaOTZzoHjSA4CAIO5UwoIMt7ylke7VRWValAQBpcYKY6gVwnop7lwSRrV3GrrNSyNkqrXV3qg4MJvnuPHjJp8mSti+D3/fyzTHvxxSaCJ8iSjkWHpS5CACdoUCa6qcDLQ8hupFqe8snHE+MT+OMVZFQaT2ykQw8DTDsbbdTVJeaTlXMayXhCJ0H4wCYPHgOPZal2kNpa/U2+0uUGVzsINBXOMoPfXh7vmGds3nPP9t7mGd6TByNUaBZeHV/XB9ur69q3NhS2w8NfBiJ4Z/Muz/Fl7bfZBCZ4b453muxQTo7M9M3xMJtOB+7aiXx2iL8dxcfh4eWDv83ZdjeeujsCySso8LZlocWjzT17uMfVPaucr64NClvOKQzji+OVh6ePp+Q1xtWbRdSCOwii5kCC6QFmmIHSArBeVYi0UcJzqkQZE7wXV9+MVW/GmXWsVPDTec+AUHXsjF54FUYCDp1KBZ+JVR8KEj4Vx8iB8WERCH4wj2kCIlHXqVK6gtcR30qBGIwwmwLhSVh8yQ7BO4JgICMzTAJN8GowtcJ+PPgycpgnmQuDaJRUHc//XgUU91mU/32mz00E719CBwAYqqoHEbNqeQ4z6agh5s5Z/6lgJxzxGJBJHDgq+FbYlgVPtBWaiuWoasIAU1Uq+nifNYJnCWTr+NAF73wNMI5OkCqlK3hTxwgpbNyxps1z1/YEj4qvrVXPHWtVCAwzAY95kuUPozZVSkfwKmznHVTBBOhYqdr33rvVDuvy8mg01Ckwq0a8+urtGzGP+pY/YNC12LhrRtUjcKYRRmeYIx5YNk3pli8aK6RBkTWCVyKdKjaCWy7yRgiMytaKubNt2dbYnWNSghfgb0ZvkKkqCN+ySvAQFzaBMIFRAvPMS5eKMZQ/ax2fZMSr4J13DasehoaVgAQ/zvg2adqc4FnK4ZLEwDNvVmgMZLnoVGQQwaQjeARDeeyHsFU99APzRGGhhl+pBgiJKVkx4m1ENvlaNsSRA3wY2BojXo075mKfDyIk2SgYOhb+dG9bNiS+ZIXgQcL83XjudFSGRKCNmtaa4xEMF3iHHXMHH7jwb3ChtehgYSTgei7bc+3AUc+duWtDFLxa9Wz/trbnLuSvZU3waCudRtqq4D0CQxQ6o0N7dyut4xntNnJs2zeMEWl4M5UUt9V1vM3xGHY4KsJSZ54AnMqkA2AVp7K7aT+oVY/ggcm+OpqFNsJMDAaMO+Z58DIjtaVt6GCw3blzpeohSEeNi54JW/AwCwYinLpWELx/CzlswTPi2QDSKNu2JniYxfxOFIqqywDCSafHMxJtd07nyhSV0x3xGF4sRcM27kBTR2Zb352D4aaKW6Iw0bb+kQesSkLBqqtTiLzxNXVPnz4t//jHP6Rnz54ybdoLUlfXuGV85PAv8vJLjefcrVu3TiuAcymCD7APEAgBXyFgE1qlHTbEAaEdKlNVX1/fNHwaYJlcKnC3DtZlS6PkMoJF+3X1DVJZVS8VFfVSVVWrsXnlFVEpLS+XKLF3xP01c0WjUTl69Ki89NJL0r17d3nuuYlSUFAu0WiV7N9/UKZPnynXXXedfPnll1LBlmlFheQXFqoRFksBn/dlZTEpLauUWKxGamqIzE3ON1S9reO9gZEhn/2yARZxhgSi4m7mt/99c8/t6uvcJ09u7mEuzeTC7Wm7c0R5KhIZwqL92to6OXKsTr5ZXyL/+tdOWfnZRlmy9At5//335f1Fi+SDD7g+aPZ69dVXpU+fPnL55ZdJp873ygvTV8onK3fI4g83ypBhE+VPf/qzPPXUUwpz0aJF8t7ChbLQg58M9iJ5551FMvfVj2Te/PWydNlO+c/mn6WkJCZ1dS7+Lo5upg/vKJS4d5nw2urAcxxanuDZUg4Ivx3rYoIEWnoBBwOGfWcu4KkXL0PYhaXl8v3WozJrzrfy8JAF0n/gROnXb6j07t1b7rvvvpQX5Rjp119/vVx88UVy2eXtpcsdw2TwsLdlwIOvScdOD8pf/vK/cuutt0qvXr0UXhDYvXv3kp4975O7u/aT7vc8LfcPeFUmTV0pew/kSaS0XEqiTXkJD4iwPX7mjORxyGGG/EgkH3jOV7jwm46VjizboYJQEy29gMNFiDIbEi2Fd7q4RNZvOiCTX/hcbr/zRWl/fX/p2q2PjBo1SkaNetTdeW7+euyxx2T06NEy7JHHZMADz8jwRxfJkGELZNDgKTJ69JNa/9FHg8OjvZEjH5UHHxwpt9z2iHTu8pw8PnaJ7NhzVM4Ul0ikPDEv4QsXH2ZytZQ/1Fd+FxdrBO9xF8UbFG47DB6dd5xHKdNn89iZa9J+ZwqvprZOco7UyIrPj8u0FxdJvwGj5YXpcyU396gUFhZIcXGxlLDjFeAqLS2RI0eLZeOmYtm1p1x27ymTgwdLJRKhfnA4tFVUFJGjR/Nk9dof5amxC2Xcs+/L2q+3S0FhuRqP8fQaH1iGYtzZ7/hymfzG/8D3BTby1R8RUI7tGup/i1X3QoudYZbObwwJtV5xTbpvzPmdDgx/WYyl8ooGyT1WKl9/vUH69OkvnTp1ltmzZ8uZM6d9NnPqR9CorBKJFDXCjMUapLoafIOfxddoKNVLJFIoX365Svr2fVju7fmQzJu3WCKRUqmpcSFbcTRTD4H4t2XJ89Oa6TPzuXkcmWb5HRRWqMGW9Frz3DUyKvMFnfGmprZG8vNPyJtvvil33nWn3HXXXbJz165AIdbxXaKleyN06B07fpSJEydJ5863yuTJk+XHH3+Mb+as31j1FnMHRzLnSlPQ8NgT/Ln03EGgf1tWe3ZTXDP6RYc6dvy4zHzpJbmxY0eZN2+eHDx40NMsGQFNsxKj9uTJkzJ//ltqYI4Z85Rs3749EA6od2Lu8Ny1TcG7YAbb6AhL8MgIj+D3W7bIsFGj5MqrrpLp06fLr7/+qoxPU4ZpF4eOSCSiy76///3vcvvtt8vGjRulzH29kopO3tvc3uYED3FczOtc9jttLiepwKg/XVAgKz77TG7u1EmuvfZaeeGFF9S4o63WSsDGYbNlyxa58847pVOnTvLaa6+pVxCcUia/7eM2gMLCFzjnXNWDhCFirsmUTEmjALCZSvLy81XV8/9k7rjjDtm0aZOOvDRApVWUPYKff/5ZD1agPeZ1m2YCAXJ4s5Zvk5s09H7mQT4zNs9dIMYELGQdi3ZQsS+//LKgdidOnCj79u3TtgOCClyMNlnC4dXDvUubdALDJRAgRiXbspGIrt/BP5CmCAAcPM75iIcYRiQfU2DIhEWc0c8cie1gO2hbNm9Wx0z79tfKsmUfS3FxkRUN7c6ZOd99950MHz5c/va3v8lnn30m5eXlCh+mB0puOceBE3ZIRFi8yQrBg4QJBwEFZkwg7sWdZcvGRFGRfPrpp9K9+70y+okJsmbtBqmoKCMQOyDEs4uxrsd3gGwrKiplz+5d8uijI+W2227T5SSbPia0wPS5KdAz7tzvs1tPPydrBA8iMIYrTOsVlqBNGO34rHlmWsnNPSZz586TvvePlfET5sl33+2RSIRzZtJnYmMbIoVFDXL0WI1s/yFPXn1tkdzU8Vbp27eP5OfnZzydqIBsW7atrePxGiFw9p3tWI+AyjCQlGAewjbDkd/RaEx27twn4ycskF59ZsqTY5fLpi1lUlaeWbfDSK+INsgPO0pk1uxtcmfX6TJg4FOyZMmHwjYvbWaSMBDPFBdrp0UfZa6TmrauHSrT/fhMiWmKQuNxKZ5xx39bQqXFF2rBb/D0tIkTAL8jkTJZvXqnjHp8sQx8eJGsXXdSiopTH5yQCBXA1tQ0yPYdRTJx6ndyV7fZ8t77a6SkpCjj0U47nnHHdnWbE7yLHfd77hIxN9M8sx8wkOhglior62XnriJ5Zc4quX/AJHlk+GRZtXqdFBdHrEjge2Vltfy0+7jMnrtSevd9XiZN/kB+2n00cP1kBcHdjLvMdFFiyNkx4t2I5KMEvpgNS5MYyYyaUne8F6qTxAitqmqQw0dqZM3aHTJ+/ES54sorddv0+++/t6qB7gR+nDhxWubM+Uju7jpU+vR9WDZu/F6jcwIBSFEIftilm1cpygd5nTWCBxFGoxp3Gc6HyQhG8Bpsaf9b1gmebeXa2gapqIjJTz/9pP81+pZbbpFp06YJyzFwSZUowzJt+/YfpFev3tK79/2yZctWzYOmMBIGKRfw2pzgYSA+da6wGGZMBzbCV8PRCROZWDvciZ3btOl79egRebNgwQIpLS01EAnvv9XbJEOGDJGuXe8WQraAZbATVkwjk8HgnVffFpdzCAe3JCqZ5zAT8GAggR7JRgyCKigo0ADLjh07Srdu3WTv3r3eFi7v44UJzMOHD8sbb7wh1Hnuuedk586dYaKuHbbVjzs7V9uyMBQmmnGXiMkt4SawiWKJcvJmkk5Fm6h3HC2cXYubdeHChZKbm5twCgImkTx45EaMGCGDBg8Wwq2BEWbCuOMESk70AMdkHTfdNoF1zl22SpA7nxYB8ZsrrMT8iDYh0sSMu0SwaZPdtK+++kp69ewpN954o45mtnARtOHEHT/8ypUrZcCAAdLx5ptl3oIFknv8uFcmEfxM8/yeu6wRPGoUZGAGF8/+35av7/DKxZf15UEgQlKYDq7BI89f9yx4zglk5RQHB4OezVKOkcNcrzB98Axfyz+Rny8ffvih3HzzzRpBu3Tp0iYdhk7wyy+/yLBhw6Rz587y1JgxsuWHHzS+nu5q+IMjSXH18yWONi1n/HN0kEdteMJqhwHh4Wm0UsbRwTvKGv1a39r00eqVdwdCacyd2x8x+IqvwfLVNdjtEJItwcxw4m55jC6AcMdlqgfkuoN0KUcex4fASL5pi7lTmilHHQiBYNScHaRLnm24eHVdHqFbwAQvVDrltK479hvDkfdY+BxWBCF0Cp7Jp7wxL/fXX2Xa9Olyc+fOMnjoUDl4oDFqhzon8vLkvffek8633ioPDRok6779Vv/HO3HqXIpHLOZ1Fjqb8UT55P5jBnQarfxfeMpRN8ZXOdAPT6qr5VRRkW5eeTwBX8q5w5DBCdrQapanfHK84x1l4DMHPxvf4S3RttgQwDMZUg58+YDV6iqfXN12nNp8xoVFm3MEAAQHni4uViYgeBiaX1SkIcLMsyAFgaeKizVUGAQgFCSOFRRofZAAAYRkMWeUoy4q2/7tJvUQNDt7bF/SNswnn95Mu/joqQtMwpQpxy4gsMgHHrhgYwALZgPn0LFjMmT4cLm+ww1q9B07dkw3eFYsX67GXP8HHpCPV65UmNBPZ4NhwIKZPEM/8Cx03PgE/bhiuTTA1J3QTT34AG8RFlvVuadPy0n46XgCnsq70lLtuNBhfIIWyoEL+/h0Gnijg4sNKh/vDK+jp04pj4EBLHgAvvBd6zo+EX5Nu3psOT1Be6dTCVTkNxeqgwQBJgzewwyvHKPdjTyQ5r8xgLipHd5pXd8aH8S8PKcivTzXrmoaVw7hwmg6AD2eupSnDO3wDL5eniOe0fivVavk/n795M8XXKhW+6hRw+WqKy+TCy74s36JUxCJKP7AsVEFLNoAd6Xf7auTT14T+o1Prj5luIBlNDCKGXnU9bdBOcoYPKPLX9e/PjJ4yjuHI52DTq6DyvGEcsjV4PHbz6fQo2zRDFxhJwRaWlGhBKIugyYYeObMGflk5Sp58OFnpN+AZ+TW24dIl9sHytSp03SeBxYCQX3SYWFSayVgpwMf/IsiEV2m8q1gk7pxVn06OIcqeCMK4yPshODTOeDQ3z5yLC6uka9WHZB7ez0vHW8ZIxMmfyTHj5/UORwxM1r034/hfAoZf/jCyKbDGo/8+CV7RrXzxS8rj1WrVklhYaGqeyuvcM/57hyq350qgUoDqTCTqUc6AM/pJBh49GiuzJnzhlzwl0vlv/77jzJw4FAN2WIUkRAMUwkdIGzBgzPzKvZKUMFTjsjeJUuWaFTvE088oeHdfm2XFYJHGBCIVcp5L7g88/LyFPkwOgHzEwJUwaMuA0qeOizb+E6eL3G6dLld2re/Tq677nr9bm7btm2e5Y661zk45E5Lp8JAYy5WO6IZ+MYrBIzXceTIkfrPlF5//XWNNfR3+qwQPEjANKzKotJS9ZbNe/NNjUU/cOCAx9yA8jqrmC3tmIcRZhDBwzy8doRDd+3aVb+MxTULE0eOHKFfyb744ovy73//W44cPapLMBgbBPZZCDaTAUwGhK4QUkTgUBb6zI3M17zgyAaUfZpmTWWN4BUR1vvRqCLK58fEq7HpcerUqbRVtBHIHSFi3LHZ4Vd3/jL+Z8rgrXv77beF3bqbbrpJBc7XMOzE4Y+nAzzw4IPy4EMPydzXXpOf9u6V8ooKP5iWPztjzkY6POI5WQJvjFHwJoqYT8b4eIOkndJXN6sEDzL0WJD/6KOPdKMExq9evVpdpMkITpWPimf9XByNphQ8DCJG7p///KdcddVVKnhGOjgxasAPty6nYq1YsULuv/9+ufqaa/Rfku3bvz8VKum9d4JmTW9Lt2SCh3eEjn/yySfC/9Hh2wF4CC0k3nNZ4pklG0tcphH/OyuT7B6qVQ/DcSjgtaqqqhKcJXjHBg4cKIMHD5Zdu3Z5eKSDJJVglq1LmVISJWCCA9YvmzOoSS6+tUPlW7K2KYsdQgfp37+/XHvddTJl6lTZu2+fFW353Xk9WWfjtMFwTGQ8ghMXWmro0KF6bg8fisJDNo0MZz9C5GWF4BEIxFlcPSOLnTJU/RVXXKEfJGBokZ+IED9R8c8IHvjURWCWgGOwYNDx48cFvzxHoFx99dVq1MG8ZAlYTEPLli3TTtL5llv0uzzwDDKlJIPr5bulnBp3dk5NHP6UpS0657vvvisdOnSQcePGaSeAXpLR6MF1eVkleFyEJhDmU9Q835whfLZLmWfRCDA9EUF+4uxZXan4svGf+2LuDIbN6WzMMJ/DPOZw1HuqBHNPIvzly6VLly6qYufMmSP8K1KmBOuoRlMqeE3eOy1k+wh+GDyDPx0Wdf7WW2/JxRdfrDig4snnfbJE/awQPKMSz5e5a0EYpuGE+OKLL9RQYRTSm7FaERbIB0m2VMQl7B+JMIY20CwYRAgd4WHJ08H8ZZO1Aw5MT78cOybfrF8vCJ2tWoxTPp+i85gAguLrtWXGne2U+TQUZRAuvGBAtG/fXnFfvny5tklbzbXHu6wQPIioOo5bEsE0nBGLFy9Wo+Waa66RGTNmyO7duwN/5ozgWQ7Fj3gEi9AZLfzzYPuaFVUdNNH18GnjYOE4Nb7FY3piS5dl4Pz587Xz0sFIqQQS3y70g7s6h3wdHa3Ht3jwgg6LPcJJXnTYIClrBO957pL4u1H7zL98dUrv5t98wmTznjXHVBvZdACzihE6czqxdQid0ClGq9+QC8RA89y5rVTawi7gG3yieFiVgDeGYCbCB092Os1zB04Iff/+/aqZsN7RUnQwHF9BU9YInnkY487m+HgCYCjBj8z5jCaYOmnSJDly5IhnuSYbTVjC1EfolOEZQXDuHYEUjHSETswd79JJjHiF7fPcISxUPF/IoqH4Hh/hG3zKg0eQhDbRbWl3iDFLSjQS5/nAA3wdwLZNmKBwKXfOVT2MYDSw94yjJRnzQZY4NzYdOGr0yiuvVNcpX6WiEUiJCFdVTwAGnzK5HTeWikTTMlow5FgKJWu3OQHRHvVog6nK2ocetAfLwcsvv1xXCVOnThU8kYzYoInOqlum7IlXVem5ORysiNA5bIGYP5ag6SbwPOeCV+bZJk0SVe8njG/RWD+zvufAQoIdMaSSzc22iaKBBKdPy/sLF+oBhqhJRnqyev42kz0rA13cvm7L+jQGHQK1z9GoOHow+DBOOQo1yIrB2qQTYYtgrXP2HnCgHX8DsX+ZpKwRvArfZ702RwwMZamEccOIQp3aHM3SJn4pw2hk9wzLe/mKFerOxCvH5gsj3RI4pJuow3lxdCocUPEwEBodlZMwnn76abnooovUSCWgE09bcwk6UeH5J0/KG2++qctMlrWzZs1S2m252ByMZO/AMytGPGqSSBOWRvHMi0ee9zAF1Yfg6PnMdTCVEbVhw4YmH0NQlg7BebOXXnqpzul0GPL8mxep2o3HQ387BmJ5+2FZWdpG+OCKMYrQLrvsMnVH4/jhXaIELnSMr9etkyfGjJHLr7pKfRnYJYx+Ojd1gZ9JAn7Ggq9vyKzReESZdxmVGHcchZLILRlfx37DbOZS1q9jxoxRCx1fNYbVnj171NI16535nJBp1DvMM6ZnJHBDwHVC8wzGw/L/ZvTieuYIFgxUVPbHH3/cxBqnPBqCToJvoWu3btK1e3d5bPRonc6gFZot+eFbXpA79TIWvDbqcxQYEv58nlGgiS47SZEyMI51thpgVsdgo4ITqWH3nvqMKNb2fPd29913K1M52YpNCwTNocQYg3PnzlWnhzFHcTWj0ODZb7tbvt1dvtHEqMOOoPMaPODbxGF53FHP4PnMM8/oijUn//AAAAcfSURBVAL38Jo1a3T9zUkd+/ftU4cV63McQRyPNm3qVNm2davSSFvAUZiGj+9uPDX69O54p/UUscb64HzWJg2wHO52N1qsXd2kMVXG3ZCyPFNFWKZcOircskrznBq0fHogyxf7bTANnsEHgfg8fiP8MwUFsnnzZvVmsUzD+j3vvPPkr3/9qxqBtvY3O4B6Bgt8aRuC/fk8+9v08HN0YdRpIKdzk3plHa32W9vBIROLqTaiY+J8QUPhROJ4lgkTJqjjB4FjvTNtsQzUwEcXhOnHzeOx8dKpf9q0dv1l/HwHb/wDbFf7yyj9zchLo2zZ7tTjtKNRT2gYOWz1oboBDqOIWKURRrUJFx+0lnMx6AiePDZquPMbhKhDXeLmjOkaQ1deruXIo/cS2q2h0mfOyLfffitjx46V888/X373u9/JH/7wB13+TJkyRVatXi2HDh+WSEmJRt1inAFP8XXBmOpXICKIyFxntHHXk7ksBt2FjmPYEe4NzgiF8DH8EZSFfvKwAfgNLQiec/e+3bBBxowbJ388/3w5/7zz9JCku7t1k7HPPadn8h3MydHlK1FJ8Inv5OGHxyd4Eovpb/KAb7yjHBqIOsq7WEzxYJqgjsrCfV1ku3/Qqgaqc0qBKzyBbnhs9LfD28ZeMYBgHMxXwmtqFAkVni9PicYIcgLFmANZK8fdGOb/MIBYfAggTwXPnrhzwSpSjkiQpiMylzJ68Mgxlz7yyCM6kkYMH66jq3efPjJs+HB5fsoU+fKrr2THzp1yODdXfQjQRKId/pWJ4UFeDQZoTY0yh45Bgrm0CW3Q7+XxsYT74AGIPB85flz+s22bhmy//MorMnzECLmra1e58MILVfC///3v5aJLL5VZs2drx1RY7AAWFWncHe2YQKEV3hl+ikdlpZdn5Rhw4EZ5HSCsMlxd5MZA4dsIlSFxg0YDH4G4f/lqfgQGLDL6TdWjZuJUPYjAHFSLqRx+aznLcwKzXqzzDVEyTuUmquupMIPv2jX1R0fIycmR8ePHq4OGNTTqXQ3AFSvkySef1HkT6x7HysMPPaR2waIPPpBNmzfLjh07JOfQId0f4F+OMDqZl7l4xvDSy/1mFcJvIof8ZXGfnj5zRnEBJtPPkqVLtbOxBr+hQwe55JJL1KXLOfasRvhnB+BEcOT6DRsUJp0JwWv0kFPjpq7j+QRvlce++HjyTDZaz02T1EUzMfJ188p47jo0fE5UlzwVvAmiJXeE5v1rEue5CwrPzMaGBg45qNXIGJZMfK/+yiuv6HIPAun1JwsK5Ne8PNm+bZu6a3H8MMey64cfgFAlNlaeffZZWbt2rXrJiFfDEk/3IjyL0GbmbD65xsuGexifA3sNCJulGadrsqzEI4kHkn98gPDRUnrmbXlZY3BKTbWwioJXQXnTXDngMIJN8H64aJrm6raD2WEkbcTN0/RwfqdKjUflqxmi5dEajHQseJiHsWRLH4hC8PRs5jimArZ70QQwG/8/vgCMKQRCRA2GIS5djEPuyS7eJ7qud370fv36KUxgz583T4Mz169fr22DQ8z9g0Voxu3MUea4dsGBjzLpHCdd+BQWe6NAUnEn9XvgMOWqlj2XoVcggoC05/mWQslIqKsXKSuvl7z8OikprZecX07I4g+XyaBBg9T3jlfPEp2CObbMGV+Wb3faRAicffPNN99oyNfjjz8uDzzwgC6puCe7CA3r17+/9O7bVz+1YglGHuUxLt955x2FCWz8CckS9JPQWoRGv/feuzLqsSdlwMDHZN78pbJz52EpKSX2DuEngxI8P2sEb9uyzNE6t6eggf9CcfJUg2zZXis/7Y7K4g+/lTHjputo+eWXnCa1m3SqAFyjIzBvo35ZW3Nv7mK59Wt+vs7p/vLM83S69BNOnAr5et0m6dvvWbmx41B54qm35btNuVJcwsqh5ZLPGsFjlLB0wKoPIngQr6xqkJwjVfLu+zky7tll+m+9TpzIPytyxgSPYcJzkGR1TAs1dzcjiLu/XNC2EuEDHLahN27cLl17jJf/uWSYDBn2huzbnyvV1b957hLVDZIHbudc1UMkI4OlAnMxgk+VMD5PnqqWZZ8elAnPfy6v/uNr2bL1SEI1iAVr62iew05YOlVYxQHwTqdtjmM7dKhMXp/3H+nR82W5vsNQGTN2smzbtv2szp0OXMpmheBBwhBR4y4FFXQSvmf79LPvZPrMz2T+W5/L5q2HpbRxS/6s2sybrHlZEtla+6xCmWYQK4jrMxpVBwedOIxEH+LTvON5Inv3V8oHH30vgwaNl9u63C0zZkyX7du36fSTaXvG7+ww7pwLFKSSJYR++vQpef31N2T4iMfk9TfelmPHGoMoqJaoLioYpwXGXdgjHkyb25ZNRkeQfJRTrJJPqGJSGInI1q1bZezYMdK7933qj2BfP2hQaHx7LRH8/wHH/sr+AxXiZgAAAABJRU5ErkJggg==;" vertex="1" parent="1">
          <mxGeometry x="647" y="260" width="126" height="103" as="geometry" />
        </mxCell>
        <mxCell id="9n3g0Q26KRdH6jhfDVG3-1" value="FARMACIA" style="whiteSpace=wrap;html=1;align=center;" vertex="1" parent="1">
          <mxGeometry x="10" y="238.5" width="100" height="40" as="geometry" />
        </mxCell>
        <mxCell id="9n3g0Q26KRdH6jhfDVG3-2" value="PROVEEDOR" style="whiteSpace=wrap;html=1;align=center;" vertex="1" parent="1">
          <mxGeometry x="350" y="240.5" width="100" height="40" as="geometry" />
        </mxCell>
        <mxCell id="9n3g0Q26KRdH6jhfDVG3-3" value="MEDICAMENTO" style="whiteSpace=wrap;html=1;align=center;" vertex="1" parent="1">
          <mxGeometry x="660" y="230" width="100" height="40" as="geometry" />
        </mxCell>
        <mxCell id="9n3g0Q26KRdH6jhfDVG3-6" value="NombreComercial" style="ellipse;whiteSpace=wrap;html=1;align=center;" vertex="1" parent="1">
          <mxGeometry x="643" y="180" width="117" height="20" as="geometry" />
        </mxCell>
        <mxCell id="9n3g0Q26KRdH6jhfDVG3-7" value="Laboratorio" style="ellipse;whiteSpace=wrap;html=1;align=center;" vertex="1" parent="1">
          <mxGeometry x="773" y="200" width="90" height="20" as="geometry" />
        </mxCell>
        <mxCell id="9n3g0Q26KRdH6jhfDVG3-9" value="" style="endArrow=none;html=1;rounded=0;exitX=0.5;exitY=1;exitDx=0;exitDy=0;" edge="1" parent="1" source="9n3g0Q26KRdH6jhfDVG3-36" target="9n3g0Q26KRdH6jhfDVG3-3">
          <mxGeometry relative="1" as="geometry">
            <mxPoint x="610" y="200" as="sourcePoint" />
            <mxPoint x="700" y="290" as="targetPoint" />
          </mxGeometry>
        </mxCell>
        <mxCell id="9n3g0Q26KRdH6jhfDVG3-10" value="" style="endArrow=none;html=1;rounded=0;exitX=0.5;exitY=1;exitDx=0;exitDy=0;entryX=0.5;entryY=0;entryDx=0;entryDy=0;" edge="1" parent="1" source="9n3g0Q26KRdH6jhfDVG3-6" target="9n3g0Q26KRdH6jhfDVG3-3">
          <mxGeometry relative="1" as="geometry">
            <mxPoint x="710" y="200" as="sourcePoint" />
            <mxPoint x="770" y="230" as="targetPoint" />
          </mxGeometry>
        </mxCell>
        <mxCell id="9n3g0Q26KRdH6jhfDVG3-11" value="" style="endArrow=none;html=1;rounded=0;exitX=0.67;exitY=-0.05;exitDx=0;exitDy=0;entryX=0.589;entryY=1.05;entryDx=0;entryDy=0;entryPerimeter=0;exitPerimeter=0;" edge="1" parent="1" source="9n3g0Q26KRdH6jhfDVG3-3" target="9n3g0Q26KRdH6jhfDVG3-7">
          <mxGeometry relative="1" as="geometry">
            <mxPoint x="730" y="200" as="sourcePoint" />
            <mxPoint x="790" y="230" as="targetPoint" />
          </mxGeometry>
        </mxCell>
        <mxCell id="9n3g0Q26KRdH6jhfDVG3-14" value="SustanciaActiva" style="ellipse;whiteSpace=wrap;html=1;align=center;" vertex="1" parent="1">
          <mxGeometry x="570" y="420" width="110" height="30" as="geometry" />
        </mxCell>
        <mxCell id="9n3g0Q26KRdH6jhfDVG3-15" value="CONTROLADO" style="whiteSpace=wrap;html=1;align=center;" vertex="1" parent="1">
          <mxGeometry x="580" y="363" width="100" height="40" as="geometry" />
        </mxCell>
        <mxCell id="9n3g0Q26KRdH6jhfDVG3-17" value="" style="endArrow=none;html=1;rounded=0;exitX=0.5;exitY=1;exitDx=0;exitDy=0;" edge="1" parent="1" source="9n3g0Q26KRdH6jhfDVG3-15" target="9n3g0Q26KRdH6jhfDVG3-14">
          <mxGeometry relative="1" as="geometry">
            <mxPoint x="650" y="490" as="sourcePoint" />
            <mxPoint x="810" y="490" as="targetPoint" />
          </mxGeometry>
        </mxCell>
        <mxCell id="9n3g0Q26KRdH6jhfDVG3-18" value="NO_CONTROLADO" style="whiteSpace=wrap;html=1;align=center;" vertex="1" parent="1">
          <mxGeometry x="740" y="363" width="130" height="40" as="geometry" />
        </mxCell>
        <mxCell id="9n3g0Q26KRdH6jhfDVG3-20" value="PATENTE" style="whiteSpace=wrap;html=1;align=center;" vertex="1" parent="1">
          <mxGeometry x="710" y="493" width="100" height="40" as="geometry" />
        </mxCell>
        <mxCell id="9n3g0Q26KRdH6jhfDVG3-21" value="GENERICO" style="whiteSpace=wrap;html=1;align=center;" vertex="1" parent="1">
          <mxGeometry x="860" y="493" width="100" height="40" as="geometry" />
        </mxCell>
        <mxCell id="9n3g0Q26KRdH6jhfDVG3-22" value="AñoPublicacion" style="ellipse;whiteSpace=wrap;html=1;align=center;" vertex="1" parent="1">
          <mxGeometry x="860" y="550" width="110" height="30" as="geometry" />
        </mxCell>
        <mxCell id="9n3g0Q26KRdH6jhfDVG3-23" value="NumeroPatente" style="ellipse;whiteSpace=wrap;html=1;align=center;" vertex="1" parent="1">
          <mxGeometry x="710" y="550" width="100" height="30" as="geometry" />
        </mxCell>
        <mxCell id="9n3g0Q26KRdH6jhfDVG3-24" value="" style="endArrow=none;html=1;rounded=0;exitX=0.5;exitY=1;exitDx=0;exitDy=0;entryX=0.5;entryY=0;entryDx=0;entryDy=0;" edge="1" parent="1" source="9n3g0Q26KRdH6jhfDVG3-20" target="9n3g0Q26KRdH6jhfDVG3-23">
          <mxGeometry relative="1" as="geometry">
            <mxPoint x="680" y="550" as="sourcePoint" />
            <mxPoint x="677.3416248602659" y="567.0136008942973" as="targetPoint" />
          </mxGeometry>
        </mxCell>
        <mxCell id="9n3g0Q26KRdH6jhfDVG3-25" value="" style="endArrow=none;html=1;rounded=0;exitX=0.5;exitY=1;exitDx=0;exitDy=0;entryX=0.5;entryY=0;entryDx=0;entryDy=0;" edge="1" parent="1" source="9n3g0Q26KRdH6jhfDVG3-21" target="9n3g0Q26KRdH6jhfDVG3-22">
          <mxGeometry relative="1" as="geometry">
            <mxPoint x="1000" y="550" as="sourcePoint" />
            <mxPoint x="997.3416248602659" y="567.0136008942973" as="targetPoint" />
          </mxGeometry>
        </mxCell>
        <mxCell id="9n3g0Q26KRdH6jhfDVG3-26" value="IdFarmacia" style="ellipse;whiteSpace=wrap;html=1;align=center;fontStyle=4;" vertex="1" parent="1">
          <mxGeometry x="-80" y="291.5" width="100" height="40" as="geometry" />
        </mxCell>
        <mxCell id="9n3g0Q26KRdH6jhfDVG3-27" value="ubicacion" style="ellipse;whiteSpace=wrap;html=1;align=center;" vertex="1" parent="1">
          <mxGeometry x="-110" y="257" width="100" height="30" as="geometry" />
        </mxCell>
        <mxCell id="9n3g0Q26KRdH6jhfDVG3-28" value="" style="endArrow=none;html=1;rounded=0;exitX=0.94;exitY=0.3;exitDx=0;exitDy=0;entryX=0.16;entryY=1.038;entryDx=0;entryDy=0;exitPerimeter=0;entryPerimeter=0;" edge="1" parent="1" source="9n3g0Q26KRdH6jhfDVG3-26" target="9n3g0Q26KRdH6jhfDVG3-1">
          <mxGeometry relative="1" as="geometry">
            <mxPoint x="250" y="370" as="sourcePoint" />
            <mxPoint x="410" y="370" as="targetPoint" />
          </mxGeometry>
        </mxCell>
        <mxCell id="9n3g0Q26KRdH6jhfDVG3-29" value="" style="endArrow=none;html=1;rounded=0;exitX=1;exitY=0;exitDx=0;exitDy=0;entryX=0;entryY=0.5;entryDx=0;entryDy=0;" edge="1" parent="1" source="9n3g0Q26KRdH6jhfDVG3-27" target="9n3g0Q26KRdH6jhfDVG3-1">
          <mxGeometry relative="1" as="geometry">
            <mxPoint x="240" y="300" as="sourcePoint" />
            <mxPoint x="400" y="300" as="targetPoint" />
          </mxGeometry>
        </mxCell>
        <mxCell id="9n3g0Q26KRdH6jhfDVG3-30" value="Compra" style="shape=rhombus;perimeter=rhombusPerimeter;whiteSpace=wrap;html=1;align=center;" vertex="1" parent="1">
          <mxGeometry x="170" y="240" width="120" height="47" as="geometry" />
        </mxCell>
        <mxCell id="9n3g0Q26KRdH6jhfDVG3-32" value="FechaPedido" style="ellipse;whiteSpace=wrap;html=1;align=center;" vertex="1" parent="1">
          <mxGeometry x="160" y="200" width="90" height="30" as="geometry" />
        </mxCell>
        <mxCell id="9n3g0Q26KRdH6jhfDVG3-34" value="Presentacion" style="ellipse;whiteSpace=wrap;html=1;align=center;" vertex="1" parent="1">
          <mxGeometry x="890" y="367" width="100" height="32" as="geometry" />
        </mxCell>
        <mxCell id="9n3g0Q26KRdH6jhfDVG3-35" value="" style="endArrow=none;html=1;rounded=0;exitX=1;exitY=0.5;exitDx=0;exitDy=0;" edge="1" parent="1" source="9n3g0Q26KRdH6jhfDVG3-18" target="9n3g0Q26KRdH6jhfDVG3-34">
          <mxGeometry relative="1" as="geometry">
            <mxPoint x="890" y="310" as="sourcePoint" />
            <mxPoint x="1050" y="310" as="targetPoint" />
          </mxGeometry>
        </mxCell>
        <mxCell id="9n3g0Q26KRdH6jhfDVG3-36" value="CodigoBarras" style="ellipse;whiteSpace=wrap;html=1;align=center;fontStyle=4;" vertex="1" parent="1">
          <mxGeometry x="540" y="155" width="110" height="30" as="geometry" />
        </mxCell>
        <mxCell id="9n3g0Q26KRdH6jhfDVG3-37" value="Es surtido" style="shape=rhombus;perimeter=rhombusPerimeter;whiteSpace=wrap;html=1;align=center;" vertex="1" parent="1">
          <mxGeometry x="500" y="237" width="110" height="43" as="geometry" />
        </mxCell>
        <mxCell id="9n3g0Q26KRdH6jhfDVG3-38" value="" style="endArrow=none;html=1;rounded=0;entryX=1;entryY=0;entryDx=0;entryDy=0;exitX=0;exitY=0.5;exitDx=0;exitDy=0;" edge="1" parent="1" source="9n3g0Q26KRdH6jhfDVG3-37" target="9n3g0Q26KRdH6jhfDVG3-2">
          <mxGeometry relative="1" as="geometry">
            <mxPoint x="380" y="350" as="sourcePoint" />
            <mxPoint x="540" y="350" as="targetPoint" />
          </mxGeometry>
        </mxCell>
        <mxCell id="9n3g0Q26KRdH6jhfDVG3-39" value="1" style="resizable=0;html=1;align=right;verticalAlign=bottom;" connectable="0" vertex="1" parent="9n3g0Q26KRdH6jhfDVG3-38">
          <mxGeometry x="1" relative="1" as="geometry" />
        </mxCell>
        <mxCell id="9n3g0Q26KRdH6jhfDVG3-40" value="" style="endArrow=none;html=1;rounded=0;entryX=0;entryY=1;entryDx=0;entryDy=0;exitX=1;exitY=0.5;exitDx=0;exitDy=0;" edge="1" parent="1" source="9n3g0Q26KRdH6jhfDVG3-37" target="9n3g0Q26KRdH6jhfDVG3-3">
          <mxGeometry relative="1" as="geometry">
            <mxPoint x="420" y="350" as="sourcePoint" />
            <mxPoint x="580" y="350" as="targetPoint" />
          </mxGeometry>
        </mxCell>
        <mxCell id="9n3g0Q26KRdH6jhfDVG3-41" value="N" style="resizable=0;html=1;align=right;verticalAlign=bottom;" connectable="0" vertex="1" parent="9n3g0Q26KRdH6jhfDVG3-40">
          <mxGeometry x="1" relative="1" as="geometry" />
        </mxCell>
        <mxCell id="9n3g0Q26KRdH6jhfDVG3-46" value="" style="endArrow=none;html=1;rounded=0;exitX=0;exitY=0.5;exitDx=0;exitDy=0;entryX=1;entryY=0;entryDx=0;entryDy=0;" edge="1" parent="1" source="9n3g0Q26KRdH6jhfDVG3-30" target="9n3g0Q26KRdH6jhfDVG3-1">
          <mxGeometry relative="1" as="geometry">
            <mxPoint x="220" y="180" as="sourcePoint" />
            <mxPoint x="120" y="257" as="targetPoint" />
          </mxGeometry>
        </mxCell>
        <mxCell id="9n3g0Q26KRdH6jhfDVG3-47" value="1" style="resizable=0;html=1;align=right;verticalAlign=bottom;" connectable="0" vertex="1" parent="9n3g0Q26KRdH6jhfDVG3-46">
          <mxGeometry x="1" relative="1" as="geometry" />
        </mxCell>
        <mxCell id="9n3g0Q26KRdH6jhfDVG3-49" value="" style="endArrow=none;html=1;rounded=0;entryX=0;entryY=0;entryDx=0;entryDy=0;exitX=1;exitY=0.5;exitDx=0;exitDy=0;" edge="1" parent="1" source="9n3g0Q26KRdH6jhfDVG3-30" target="9n3g0Q26KRdH6jhfDVG3-2">
          <mxGeometry relative="1" as="geometry">
            <mxPoint x="230" y="180" as="sourcePoint" />
            <mxPoint x="280" y="191.5" as="targetPoint" />
          </mxGeometry>
        </mxCell>
        <mxCell id="9n3g0Q26KRdH6jhfDVG3-50" value="N" style="resizable=0;html=1;align=right;verticalAlign=bottom;" connectable="0" vertex="1" parent="9n3g0Q26KRdH6jhfDVG3-49">
          <mxGeometry x="1" relative="1" as="geometry" />
        </mxCell>
        <mxCell id="9n3g0Q26KRdH6jhfDVG3-52" value="" style="endArrow=none;html=1;rounded=0;exitX=0.5;exitY=0;exitDx=0;exitDy=0;entryX=0.978;entryY=0.733;entryDx=0;entryDy=0;entryPerimeter=0;" edge="1" parent="1" source="9n3g0Q26KRdH6jhfDVG3-30" target="9n3g0Q26KRdH6jhfDVG3-32">
          <mxGeometry relative="1" as="geometry">
            <mxPoint x="310" y="360" as="sourcePoint" />
            <mxPoint x="220" y="210" as="targetPoint" />
          </mxGeometry>
        </mxCell>
        <mxCell id="9n3g0Q26KRdH6jhfDVG3-53" value="Otorga" style="shape=rhombus;perimeter=rhombusPerimeter;whiteSpace=wrap;html=1;align=center;" vertex="1" parent="1">
          <mxGeometry x="340" y="130" width="120" height="40" as="geometry" />
        </mxCell>
        <mxCell id="9n3g0Q26KRdH6jhfDVG3-54" value="" style="endArrow=none;html=1;rounded=0;exitX=0.5;exitY=1;exitDx=0;exitDy=0;entryX=0.5;entryY=0;entryDx=0;entryDy=0;" edge="1" parent="1" source="9n3g0Q26KRdH6jhfDVG3-53" target="9n3g0Q26KRdH6jhfDVG3-2">
          <mxGeometry relative="1" as="geometry">
            <mxPoint x="400" y="350" as="sourcePoint" />
            <mxPoint x="340" y="325" as="targetPoint" />
          </mxGeometry>
        </mxCell>
        <mxCell id="9n3g0Q26KRdH6jhfDVG3-55" value="1" style="resizable=0;html=1;align=right;verticalAlign=bottom;" connectable="0" vertex="1" parent="9n3g0Q26KRdH6jhfDVG3-54">
          <mxGeometry x="1" relative="1" as="geometry" />
        </mxCell>
        <mxCell id="9n3g0Q26KRdH6jhfDVG3-56" value="CREDITO" style="whiteSpace=wrap;html=1;align=center;" vertex="1" parent="1">
          <mxGeometry x="180" y="100" width="100" height="40" as="geometry" />
        </mxCell>
        <mxCell id="9n3g0Q26KRdH6jhfDVG3-57" value="" style="endArrow=none;html=1;rounded=0;entryX=1;entryY=0;entryDx=0;entryDy=0;exitX=0.5;exitY=0;exitDx=0;exitDy=0;" edge="1" parent="1" source="9n3g0Q26KRdH6jhfDVG3-53" target="9n3g0Q26KRdH6jhfDVG3-56">
          <mxGeometry relative="1" as="geometry">
            <mxPoint x="390" y="70" as="sourcePoint" />
            <mxPoint x="550" y="70" as="targetPoint" />
          </mxGeometry>
        </mxCell>
        <mxCell id="9n3g0Q26KRdH6jhfDVG3-58" value="N" style="resizable=0;html=1;align=right;verticalAlign=bottom;" connectable="0" vertex="1" parent="9n3g0Q26KRdH6jhfDVG3-57">
          <mxGeometry x="1" relative="1" as="geometry" />
        </mxCell>
        <mxCell id="9n3g0Q26KRdH6jhfDVG3-59" value="MesesCredito" style="ellipse;whiteSpace=wrap;html=1;align=center;" vertex="1" parent="1">
          <mxGeometry x="130" y="50" width="90" height="30" as="geometry" />
        </mxCell>
        <mxCell id="9n3g0Q26KRdH6jhfDVG3-61" value="IdCredito" style="ellipse;whiteSpace=wrap;html=1;align=center;fontStyle=4;" vertex="1" parent="1">
          <mxGeometry x="220" y="40" width="100" height="25" as="geometry" />
        </mxCell>
        <mxCell id="9n3g0Q26KRdH6jhfDVG3-62" value="" style="endArrow=none;html=1;rounded=0;exitX=0.5;exitY=0;exitDx=0;exitDy=0;entryX=0.5;entryY=1;entryDx=0;entryDy=0;" edge="1" parent="1" source="9n3g0Q26KRdH6jhfDVG3-56" target="9n3g0Q26KRdH6jhfDVG3-61">
          <mxGeometry relative="1" as="geometry">
            <mxPoint x="380" y="90" as="sourcePoint" />
            <mxPoint x="540" y="90" as="targetPoint" />
          </mxGeometry>
        </mxCell>
        <mxCell id="9n3g0Q26KRdH6jhfDVG3-65" value="" style="endArrow=none;html=1;rounded=0;exitX=0.722;exitY=1.067;exitDx=0;exitDy=0;exitPerimeter=0;entryX=0.25;entryY=0;entryDx=0;entryDy=0;" edge="1" parent="1" source="9n3g0Q26KRdH6jhfDVG3-59" target="9n3g0Q26KRdH6jhfDVG3-56">
          <mxGeometry relative="1" as="geometry">
            <mxPoint x="410" y="80" as="sourcePoint" />
            <mxPoint x="570" y="80" as="targetPoint" />
          </mxGeometry>
        </mxCell>
        <mxCell id="9n3g0Q26KRdH6jhfDVG3-66" value="IdFarmacia" style="ellipse;whiteSpace=wrap;html=1;align=center;" vertex="1" parent="1">
          <mxGeometry x="230" y="160" width="90" height="25" as="geometry" />
        </mxCell>
        <mxCell id="9n3g0Q26KRdH6jhfDVG3-67" value="" style="endArrow=none;html=1;rounded=0;exitX=0.5;exitY=0;exitDx=0;exitDy=0;" edge="1" parent="1" source="9n3g0Q26KRdH6jhfDVG3-66" target="9n3g0Q26KRdH6jhfDVG3-56">
          <mxGeometry relative="1" as="geometry">
            <mxPoint x="450" y="30" as="sourcePoint" />
            <mxPoint x="610" y="30" as="targetPoint" />
          </mxGeometry>
        </mxCell>
        <mxCell id="9n3g0Q26KRdH6jhfDVG3-68" value="Recibe" style="shape=rhombus;perimeter=rhombusPerimeter;whiteSpace=wrap;html=1;align=center;" vertex="1" parent="1">
          <mxGeometry x="40" y="157.5" width="100" height="30" as="geometry" />
        </mxCell>
        <mxCell id="9n3g0Q26KRdH6jhfDVG3-69" value="" style="endArrow=none;html=1;rounded=0;entryX=0.75;entryY=0;entryDx=0;entryDy=0;exitX=0.5;exitY=1;exitDx=0;exitDy=0;" edge="1" parent="1" source="9n3g0Q26KRdH6jhfDVG3-68" target="9n3g0Q26KRdH6jhfDVG3-1">
          <mxGeometry relative="1" as="geometry">
            <mxPoint x="30" y="120" as="sourcePoint" />
            <mxPoint x="190" y="120" as="targetPoint" />
          </mxGeometry>
        </mxCell>
        <mxCell id="9n3g0Q26KRdH6jhfDVG3-70" value="1" style="resizable=0;html=1;align=right;verticalAlign=bottom;" connectable="0" vertex="1" parent="9n3g0Q26KRdH6jhfDVG3-69">
          <mxGeometry x="1" relative="1" as="geometry" />
        </mxCell>
        <mxCell id="9n3g0Q26KRdH6jhfDVG3-71" value="" style="endArrow=none;html=1;rounded=0;entryX=0;entryY=1;entryDx=0;entryDy=0;exitX=0.5;exitY=0;exitDx=0;exitDy=0;" edge="1" parent="1" source="9n3g0Q26KRdH6jhfDVG3-68" target="9n3g0Q26KRdH6jhfDVG3-56">
          <mxGeometry relative="1" as="geometry">
            <mxPoint y="110" as="sourcePoint" />
            <mxPoint x="160" y="110" as="targetPoint" />
          </mxGeometry>
        </mxCell>
        <mxCell id="9n3g0Q26KRdH6jhfDVG3-72" value="N" style="resizable=0;html=1;align=right;verticalAlign=bottom;" connectable="0" vertex="1" parent="9n3g0Q26KRdH6jhfDVG3-71">
          <mxGeometry x="1" relative="1" as="geometry" />
        </mxCell>
        <mxCell id="9n3g0Q26KRdH6jhfDVG3-73" value="Realiza" style="shape=rhombus;perimeter=rhombusPerimeter;whiteSpace=wrap;html=1;align=center;" vertex="1" parent="1">
          <mxGeometry x="-90" y="166.25" width="100" height="47.5" as="geometry" />
        </mxCell>
        <mxCell id="9n3g0Q26KRdH6jhfDVG3-75" value="" style="endArrow=none;html=1;rounded=0;exitX=0.5;exitY=1;exitDx=0;exitDy=0;" edge="1" parent="1" source="9n3g0Q26KRdH6jhfDVG3-73">
          <mxGeometry relative="1" as="geometry">
            <mxPoint x="140" y="390" as="sourcePoint" />
            <mxPoint x="10" y="240" as="targetPoint" />
          </mxGeometry>
        </mxCell>
        <mxCell id="9n3g0Q26KRdH6jhfDVG3-76" value="1" style="resizable=0;html=1;align=right;verticalAlign=bottom;" connectable="0" vertex="1" parent="9n3g0Q26KRdH6jhfDVG3-75">
          <mxGeometry x="1" relative="1" as="geometry" />
        </mxCell>
        <mxCell id="9n3g0Q26KRdH6jhfDVG3-77" value="PAGO" style="whiteSpace=wrap;html=1;align=center;" vertex="1" parent="1">
          <mxGeometry x="-90" y="100" width="100" height="40" as="geometry" />
        </mxCell>
        <mxCell id="9n3g0Q26KRdH6jhfDVG3-78" value="Monto" style="ellipse;whiteSpace=wrap;html=1;align=center;" vertex="1" parent="1">
          <mxGeometry x="-140" y="60" width="70" height="30" as="geometry" />
        </mxCell>
        <mxCell id="9n3g0Q26KRdH6jhfDVG3-79" value="NumeroPago" style="ellipse;whiteSpace=wrap;html=1;align=center;" vertex="1" parent="1">
          <mxGeometry x="-90" y="30" width="100" height="30" as="geometry" />
        </mxCell>
        <mxCell id="9n3g0Q26KRdH6jhfDVG3-80" value="" style="endArrow=none;html=1;rounded=0;exitX=0.5;exitY=1;exitDx=0;exitDy=0;entryX=0;entryY=0;entryDx=0;entryDy=0;" edge="1" parent="1" source="9n3g0Q26KRdH6jhfDVG3-78" target="9n3g0Q26KRdH6jhfDVG3-77">
          <mxGeometry relative="1" as="geometry">
            <mxPoint x="-80" y="30" as="sourcePoint" />
            <mxPoint x="80" y="30" as="targetPoint" />
          </mxGeometry>
        </mxCell>
        <mxCell id="9n3g0Q26KRdH6jhfDVG3-81" value="" style="endArrow=none;html=1;rounded=0;exitX=0.5;exitY=1;exitDx=0;exitDy=0;entryX=0.5;entryY=0;entryDx=0;entryDy=0;" edge="1" parent="1" source="9n3g0Q26KRdH6jhfDVG3-79" target="9n3g0Q26KRdH6jhfDVG3-77">
          <mxGeometry relative="1" as="geometry">
            <mxPoint x="-95" y="100" as="sourcePoint" />
            <mxPoint x="-70" y="110" as="targetPoint" />
          </mxGeometry>
        </mxCell>
        <mxCell id="9n3g0Q26KRdH6jhfDVG3-82" value="" style="endArrow=none;html=1;rounded=0;exitX=0.5;exitY=0;exitDx=0;exitDy=0;entryX=0;entryY=1;entryDx=0;entryDy=0;" edge="1" parent="1" source="9n3g0Q26KRdH6jhfDVG3-73" target="9n3g0Q26KRdH6jhfDVG3-77">
          <mxGeometry relative="1" as="geometry">
            <mxPoint x="-20" y="390" as="sourcePoint" />
            <mxPoint x="140" y="390" as="targetPoint" />
          </mxGeometry>
        </mxCell>
        <mxCell id="9n3g0Q26KRdH6jhfDVG3-83" value="N" style="resizable=0;html=1;align=right;verticalAlign=bottom;" connectable="0" vertex="1" parent="9n3g0Q26KRdH6jhfDVG3-82">
          <mxGeometry x="1" relative="1" as="geometry" />
        </mxCell>
        <mxCell id="9n3g0Q26KRdH6jhfDVG3-84" value="Recibe" style="shape=rhombus;perimeter=rhombusPerimeter;whiteSpace=wrap;html=1;align=center;" vertex="1" parent="1">
          <mxGeometry x="30" y="90" width="90" height="35" as="geometry" />
        </mxCell>
        <mxCell id="9n3g0Q26KRdH6jhfDVG3-85" value="" style="endArrow=none;html=1;rounded=0;exitX=1;exitY=0.5;exitDx=0;exitDy=0;entryX=0;entryY=0;entryDx=0;entryDy=0;" edge="1" parent="1" source="9n3g0Q26KRdH6jhfDVG3-84" target="9n3g0Q26KRdH6jhfDVG3-56">
          <mxGeometry relative="1" as="geometry">
            <mxPoint x="140" y="90" as="sourcePoint" />
            <mxPoint x="190" y="116.25" as="targetPoint" />
          </mxGeometry>
        </mxCell>
        <mxCell id="9n3g0Q26KRdH6jhfDVG3-86" value="1" style="resizable=0;html=1;align=right;verticalAlign=bottom;" connectable="0" vertex="1" parent="9n3g0Q26KRdH6jhfDVG3-85">
          <mxGeometry x="1" relative="1" as="geometry" />
        </mxCell>
        <mxCell id="9n3g0Q26KRdH6jhfDVG3-87" value="" style="endArrow=none;html=1;rounded=0;entryX=1;entryY=0;entryDx=0;entryDy=0;exitX=0;exitY=0.5;exitDx=0;exitDy=0;" edge="1" parent="1" source="9n3g0Q26KRdH6jhfDVG3-84" target="9n3g0Q26KRdH6jhfDVG3-77">
          <mxGeometry relative="1" as="geometry">
            <mxPoint x="10" y="35" as="sourcePoint" />
            <mxPoint x="170" y="35" as="targetPoint" />
          </mxGeometry>
        </mxCell>
        <mxCell id="9n3g0Q26KRdH6jhfDVG3-88" value="N" style="resizable=0;html=1;align=right;verticalAlign=bottom;" connectable="0" vertex="1" parent="9n3g0Q26KRdH6jhfDVG3-87">
          <mxGeometry x="1" relative="1" as="geometry" />
        </mxCell>
        <mxCell id="9n3g0Q26KRdH6jhfDVG3-89" value="RECETA" style="whiteSpace=wrap;html=1;align=center;" vertex="1" parent="1">
          <mxGeometry x="5" y="380" width="100" height="40" as="geometry" />
        </mxCell>
        <mxCell id="9n3g0Q26KRdH6jhfDVG3-90" value="Surte" style="shape=rhombus;perimeter=rhombusPerimeter;whiteSpace=wrap;html=1;align=center;" vertex="1" parent="1">
          <mxGeometry x="25" y="330" width="80" height="33" as="geometry" />
        </mxCell>
        <mxCell id="9n3g0Q26KRdH6jhfDVG3-91" value="" style="endArrow=none;html=1;rounded=0;exitX=0.5;exitY=0;exitDx=0;exitDy=0;" edge="1" parent="1" source="9n3g0Q26KRdH6jhfDVG3-90" target="9n3g0Q26KRdH6jhfDVG3-1">
          <mxGeometry relative="1" as="geometry">
            <mxPoint x="150" y="350" as="sourcePoint" />
            <mxPoint x="310" y="350" as="targetPoint" />
          </mxGeometry>
        </mxCell>
        <mxCell id="9n3g0Q26KRdH6jhfDVG3-92" value="1" style="resizable=0;html=1;align=right;verticalAlign=bottom;" connectable="0" vertex="1" parent="9n3g0Q26KRdH6jhfDVG3-91">
          <mxGeometry x="1" relative="1" as="geometry" />
        </mxCell>
        <mxCell id="9n3g0Q26KRdH6jhfDVG3-93" value="" style="endArrow=none;html=1;rounded=0;entryX=0.5;entryY=0;entryDx=0;entryDy=0;exitX=0.5;exitY=1;exitDx=0;exitDy=0;" edge="1" parent="1" source="9n3g0Q26KRdH6jhfDVG3-90" target="9n3g0Q26KRdH6jhfDVG3-89">
          <mxGeometry relative="1" as="geometry">
            <mxPoint x="160" y="360" as="sourcePoint" />
            <mxPoint x="140" y="352.5" as="targetPoint" />
          </mxGeometry>
        </mxCell>
        <mxCell id="9n3g0Q26KRdH6jhfDVG3-94" value="N" style="resizable=0;html=1;align=right;verticalAlign=bottom;" connectable="0" vertex="1" parent="9n3g0Q26KRdH6jhfDVG3-93">
          <mxGeometry x="1" relative="1" as="geometry" />
        </mxCell>
        <mxCell id="9n3g0Q26KRdH6jhfDVG3-96" value="NO_CONTROLADO" style="whiteSpace=wrap;html=1;align=center;" vertex="1" parent="1">
          <mxGeometry x="-90" y="489" width="140" height="40" as="geometry" />
        </mxCell>
        <mxCell id="9n3g0Q26KRdH6jhfDVG3-97" value="NumArticulos" style="ellipse;whiteSpace=wrap;html=1;align=center;" vertex="1" parent="1">
          <mxGeometry x="-130" y="550" width="90" height="30" as="geometry" />
        </mxCell>
        <mxCell id="9n3g0Q26KRdH6jhfDVG3-101" value="FolioInterno" style="ellipse;whiteSpace=wrap;html=1;align=center;fontStyle=4;" vertex="1" parent="1">
          <mxGeometry x="-120" y="380" width="100" height="40" as="geometry" />
        </mxCell>
        <mxCell id="9n3g0Q26KRdH6jhfDVG3-102" value="VentaTotal" style="ellipse;whiteSpace=wrap;html=1;align=center;" vertex="1" parent="1">
          <mxGeometry x="125" y="390" width="85" height="30" as="geometry" />
        </mxCell>
        <mxCell id="9n3g0Q26KRdH6jhfDVG3-103" value="" style="endArrow=none;html=1;rounded=0;exitX=1;exitY=0.5;exitDx=0;exitDy=0;" edge="1" parent="1" source="9n3g0Q26KRdH6jhfDVG3-101" target="9n3g0Q26KRdH6jhfDVG3-89">
          <mxGeometry relative="1" as="geometry">
            <mxPoint x="170" y="530" as="sourcePoint" />
            <mxPoint x="330" y="530" as="targetPoint" />
          </mxGeometry>
        </mxCell>
        <mxCell id="9n3g0Q26KRdH6jhfDVG3-104" value="" style="endArrow=none;html=1;rounded=0;exitX=1;exitY=0.5;exitDx=0;exitDy=0;entryX=0;entryY=0.5;entryDx=0;entryDy=0;" edge="1" parent="1" source="9n3g0Q26KRdH6jhfDVG3-89" target="9n3g0Q26KRdH6jhfDVG3-102">
          <mxGeometry relative="1" as="geometry">
            <mxPoint x="210" y="540" as="sourcePoint" />
            <mxPoint x="370" y="540" as="targetPoint" />
          </mxGeometry>
        </mxCell>
        <mxCell id="9n3g0Q26KRdH6jhfDVG3-105" value="IdProveedor" style="ellipse;whiteSpace=wrap;html=1;align=center;fontStyle=4;" vertex="1" parent="1">
          <mxGeometry x="350" y="300" width="100" height="40" as="geometry" />
        </mxCell>
        <mxCell id="9n3g0Q26KRdH6jhfDVG3-107" value="" style="endArrow=none;html=1;rounded=0;exitX=0.5;exitY=1;exitDx=0;exitDy=0;" edge="1" parent="1" source="9n3g0Q26KRdH6jhfDVG3-2" target="9n3g0Q26KRdH6jhfDVG3-105">
          <mxGeometry relative="1" as="geometry">
            <mxPoint x="430" y="410" as="sourcePoint" />
            <mxPoint x="590" y="410" as="targetPoint" />
          </mxGeometry>
        </mxCell>
        <mxCell id="9n3g0Q26KRdH6jhfDVG3-108" value="" style="endArrow=none;html=1;rounded=0;exitX=0.25;exitY=1;exitDx=0;exitDy=0;" edge="1" parent="1" source="9n3g0Q26KRdH6jhfDVG3-96" target="9n3g0Q26KRdH6jhfDVG3-97">
          <mxGeometry relative="1" as="geometry">
            <mxPoint x="70" y="620" as="sourcePoint" />
            <mxPoint x="230" y="620" as="targetPoint" />
          </mxGeometry>
        </mxCell>
        <mxCell id="9n3g0Q26KRdH6jhfDVG3-109" value="CONTROLADO" style="whiteSpace=wrap;html=1;align=center;" vertex="1" parent="1">
          <mxGeometry x="70" y="489" width="100" height="40" as="geometry" />
        </mxCell>
        <mxCell id="9n3g0Q26KRdH6jhfDVG3-110" value="CopiaReceta" style="ellipse;whiteSpace=wrap;html=1;align=center;" vertex="1" parent="1">
          <mxGeometry x="25" y="552.5" width="80" height="35" as="geometry" />
        </mxCell>
        <mxCell id="9n3g0Q26KRdH6jhfDVG3-111" value="RFC_Medico" style="ellipse;whiteSpace=wrap;html=1;align=center;" vertex="1" parent="1">
          <mxGeometry x="117.5" y="550" width="100" height="40" as="geometry" />
        </mxCell>
        <mxCell id="9n3g0Q26KRdH6jhfDVG3-112" value="" style="endArrow=none;html=1;rounded=0;exitX=0.25;exitY=1;exitDx=0;exitDy=0;entryX=0.5;entryY=0;entryDx=0;entryDy=0;" edge="1" parent="1" source="9n3g0Q26KRdH6jhfDVG3-109" target="9n3g0Q26KRdH6jhfDVG3-110">
          <mxGeometry relative="1" as="geometry">
            <mxPoint x="240" y="520" as="sourcePoint" />
            <mxPoint x="400" y="520" as="targetPoint" />
          </mxGeometry>
        </mxCell>
        <mxCell id="9n3g0Q26KRdH6jhfDVG3-113" value="" style="endArrow=none;html=1;rounded=0;exitX=0.75;exitY=1;exitDx=0;exitDy=0;entryX=0.5;entryY=0;entryDx=0;entryDy=0;" edge="1" parent="1" source="9n3g0Q26KRdH6jhfDVG3-109" target="9n3g0Q26KRdH6jhfDVG3-111">
          <mxGeometry relative="1" as="geometry">
            <mxPoint x="270" y="530" as="sourcePoint" />
            <mxPoint x="430" y="530" as="targetPoint" />
          </mxGeometry>
        </mxCell>
        <mxCell id="9n3g0Q26KRdH6jhfDVG3-115" value="Inspecciona" style="shape=rhombus;perimeter=rhombusPerimeter;whiteSpace=wrap;html=1;align=center;" vertex="1" parent="1">
          <mxGeometry x="200" y="442" width="110" height="47" as="geometry" />
        </mxCell>
        <mxCell id="9n3g0Q26KRdH6jhfDVG3-116" value="" style="endArrow=none;html=1;rounded=0;entryX=1;entryY=0;entryDx=0;entryDy=0;exitX=0;exitY=0.5;exitDx=0;exitDy=0;" edge="1" parent="1" source="9n3g0Q26KRdH6jhfDVG3-115" target="9n3g0Q26KRdH6jhfDVG3-109">
          <mxGeometry relative="1" as="geometry">
            <mxPoint x="300" y="580" as="sourcePoint" />
            <mxPoint x="460" y="580" as="targetPoint" />
          </mxGeometry>
        </mxCell>
        <mxCell id="9n3g0Q26KRdH6jhfDVG3-117" value="N" style="resizable=0;html=1;align=right;verticalAlign=bottom;" connectable="0" vertex="1" parent="9n3g0Q26KRdH6jhfDVG3-116">
          <mxGeometry x="1" relative="1" as="geometry" />
        </mxCell>
        <mxCell id="9n3g0Q26KRdH6jhfDVG3-118" value="REP_SEC_SALUD" style="whiteSpace=wrap;html=1;align=center;" vertex="1" parent="1">
          <mxGeometry x="330" y="429.5" width="120" height="40" as="geometry" />
        </mxCell>
        <mxCell id="9n3g0Q26KRdH6jhfDVG3-119" value="" style="endArrow=none;html=1;rounded=0;entryX=0;entryY=0.5;entryDx=0;entryDy=0;exitX=1;exitY=0.5;exitDx=0;exitDy=0;" edge="1" parent="1" source="9n3g0Q26KRdH6jhfDVG3-115" target="9n3g0Q26KRdH6jhfDVG3-118">
          <mxGeometry relative="1" as="geometry">
            <mxPoint x="300" y="540" as="sourcePoint" />
            <mxPoint x="460" y="540" as="targetPoint" />
          </mxGeometry>
        </mxCell>
        <mxCell id="9n3g0Q26KRdH6jhfDVG3-120" value="1" style="resizable=0;html=1;align=right;verticalAlign=bottom;" connectable="0" vertex="1" parent="9n3g0Q26KRdH6jhfDVG3-119">
          <mxGeometry x="1" relative="1" as="geometry" />
        </mxCell>
        <mxCell id="9n3g0Q26KRdH6jhfDVG3-121" value="Nombre" style="ellipse;whiteSpace=wrap;html=1;align=center;fontStyle=4;" vertex="1" parent="1">
          <mxGeometry x="380" y="493" width="70" height="20" as="geometry" />
        </mxCell>
        <mxCell id="9n3g0Q26KRdH6jhfDVG3-122" value="" style="endArrow=none;html=1;rounded=0;exitX=0.75;exitY=1;exitDx=0;exitDy=0;entryX=0.5;entryY=0;entryDx=0;entryDy=0;" edge="1" parent="1" source="9n3g0Q26KRdH6jhfDVG3-118" target="9n3g0Q26KRdH6jhfDVG3-121">
          <mxGeometry relative="1" as="geometry">
            <mxPoint x="340" y="560" as="sourcePoint" />
            <mxPoint x="500" y="560" as="targetPoint" />
          </mxGeometry>
        </mxCell>
        <mxCell id="9n3g0Q26KRdH6jhfDVG3-123" value="Nombre" style="ellipse;whiteSpace=wrap;html=1;align=center;" vertex="1" parent="1">
          <mxGeometry x="300" y="488" width="60" height="30" as="geometry" />
        </mxCell>
        <mxCell id="9n3g0Q26KRdH6jhfDVG3-125" value="FechaRevision" style="ellipse;whiteSpace=wrap;html=1;align=center;" vertex="1" parent="1">
          <mxGeometry x="260" y="540" width="100" height="20" as="geometry" />
        </mxCell>
        <mxCell id="9n3g0Q26KRdH6jhfDVG3-126" value="" style="endArrow=none;html=1;rounded=0;exitX=0.5;exitY=1;exitDx=0;exitDy=0;" edge="1" parent="1" source="9n3g0Q26KRdH6jhfDVG3-115" target="9n3g0Q26KRdH6jhfDVG3-125">
          <mxGeometry relative="1" as="geometry">
            <mxPoint x="370" y="630" as="sourcePoint" />
            <mxPoint x="530" y="630" as="targetPoint" />
          </mxGeometry>
        </mxCell>
        <mxCell id="9n3g0Q26KRdH6jhfDVG3-127" value="" style="endArrow=none;html=1;rounded=0;exitX=1;exitY=1;exitDx=0;exitDy=0;entryX=0.5;entryY=0;entryDx=0;entryDy=0;" edge="1" parent="1" source="9n3g0Q26KRdH6jhfDVG3-115" target="9n3g0Q26KRdH6jhfDVG3-123">
          <mxGeometry relative="1" as="geometry">
            <mxPoint x="390" y="590" as="sourcePoint" />
            <mxPoint x="550" y="590" as="targetPoint" />
          </mxGeometry>
        </mxCell>
      </root>
    </mxGraphModel>
  </diagram>
</mxfile>
